<?xml version="1.0" encoding="UTF-8"?>
<svg xmlns="http://www.w3.org/2000/svg" width="96" height="96" viewBox="0 0 512 512" role="img" aria-label="Warm Mako — fairway plat course chart disc">
<defs><clipPath id="fp-disc"><circle cx="256" cy="256" r="220"/></clipPath>
<linearGradient id="fp-depth" x1="0" y1="0" x2="0" y2="1"><stop offset="0" stop-color="#fff" stop-opacity=".18"/><stop offset="1" stop-color="#000" stop-opacity=".28"/></linearGradient></defs>
<g id="base" clip-path="url(#fp-disc)">
<circle cx="256" cy="256" r="220" fill="#e8d8b0"/>
</g>
<g id="art" clip-path="url(#fp-disc)">
<g transform="rotate(-19.7 256 256)">
<rect x="-40" y="-40" width="592" height="592" fill="#8b765c"/>
<circle cx="144.1" cy="310.1" r="14" fill="#4e4234" opacity=".8"/>
<circle cx="164.7" cy="304.5" r="13.9" fill="#4e4234" opacity=".8"/>
<circle cx="177.8" cy="280.2" r="13.7" fill="#4e4234" opacity=".8"/>
<circle cx="204.4" cy="302.2" r="13.4" fill="#4e4234" opacity=".8"/>
<circle cx="212.9" cy="279.1" r="12.9" fill="#4e4234" opacity=".8"/>
<circle cx="224.2" cy="268.3" r="12.4" fill="#4e4234" opacity=".8"/>
<circle cx="251.7" cy="280.5" r="11.7" fill="#4e4234" opacity=".8"/>
<circle cx="245.7" cy="250.5" r="10.9" fill="#4e4234" opacity=".8"/>
<circle cx="266" cy="250" r="10.1" fill="#4e4234" opacity=".8"/>
<circle cx="285.8" cy="245.2" r="9.2" fill="#4e4234" opacity=".8"/>
<circle cx="272.6" cy="218.1" r="8.3" fill="#4e4234" opacity=".8"/>
<circle cx="304.8" cy="215.6" r="8.6" fill="#4e4234" opacity=".8"/>
<circle cx="307.5" cy="196.3" r="9.5" fill="#4e4234" opacity=".8"/>
<circle cx="299" cy="173.6" r="10.3" fill="#4e4234" opacity=".8"/>
<circle cx="334" cy="159.6" r="11.1" fill="#4e4234" opacity=".8"/>
<circle cx="162.8" cy="433.8" r="10.3" fill="#4e4234" opacity=".8"/>
<circle cx="187.5" cy="407" r="9.5" fill="#4e4234" opacity=".8"/>
<circle cx="222.6" cy="427.6" r="8.6" fill="#4e4234" opacity=".8"/>
<circle cx="243.9" cy="401.7" r="8.3" fill="#4e4234" opacity=".8"/>
<circle cx="265.8" cy="384.2" r="9.2" fill="#4e4234" opacity=".8"/>
<circle cx="301.9" cy="392.1" r="10.1" fill="#4e4234" opacity=".8"/>
<circle cx="307.8" cy="353" r="10.9" fill="#4e4234" opacity=".8"/>
<circle cx="334" cy="343.4" r="11.7" fill="#4e4234" opacity=".8"/>
<circle cx="360.7" cy="331.3" r="12.4" fill="#4e4234" opacity=".8"/>
<circle cx="353.3" cy="292.3" r="12.9" fill="#4e4234" opacity=".8"/>
<circle cx="386.5" cy="282.3" r="13.4" fill="#4e4234" opacity=".8"/>
<circle cx="392.6" cy="254.9" r="13.7" fill="#4e4234" opacity=".8"/>
<circle cx="383.5" cy="222.9" r="13.9" fill="#4e4234" opacity=".8"/>
<circle cx="417.4" cy="204.6" r="14" fill="#4e4234" opacity=".8"/>
<circle cx="401.3" cy="172.1" r="13.9" fill="#4e4234" opacity=".8"/>
<ellipse cx="366" cy="146" rx="50.6" ry="44.5" fill="#f7f2e4" opacity=".95" stroke="#f7f1e2" stroke-width="5.3"/>
<path d="M151.2 404.7L163.6 402.8L175.7 400.6L187.6 398L199.2 395.1L210.5 391.7L221.6 388L232.4 383.9L242.8 379.5L253 374.6L262.9 369.3L272.4 363.6L281.6 357.6L290.4 351.2L298.8 344.4L306.9 337.2L314.6 329.7L321.8 321.8L328.7 313.7L335.1 305.2L341.2 296.4L346.8 287.3L352 278L356.8 268.4L361.2 258.6L365.2 248.6L368.8 238.3L372 227.8L374.9 217.1L377.4 206.2L379.6 195.1L381.5 183.8L383 172.3L384.2 160.5L385.1 148.6L346.9 143.4L344.4 154L341.7 164.2L338.7 174L335.4 183.5L331.9 192.6L328.2 201.3L324.2 209.6L320 217.6L315.6 225.2L311 232.4L306.3 239.3L301.3 245.9L296.2 252.1L290.9 258L285.4 263.6L279.8 269L274 274L268.1 278.8L261.9 283.4L255.6 287.7L249.1 291.8L242.3 295.7L235.4 299.4L228.2 302.9L220.7 306.2L213 309.4L205.1 312.3L196.8 315.1L188.3 317.6L179.4 320L170.2 322.2L160.7 324.1L150.9 325.8L140.8 327.3Z" fill="#f0e5cb"/>
<path d="M151.2 404.7L163.6 402.8L175.7 400.6L187.6 398L199.2 395.1L210.5 391.7L221.6 388L232.4 383.9L242.8 379.5L253 374.6L262.9 369.3L272.4 363.6L281.6 357.6L290.4 351.2L298.8 344.4L306.9 337.2L314.6 329.7L321.8 321.8L328.7 313.7L335.1 305.2L341.2 296.4L346.8 287.3L352 278L356.8 268.4L361.2 258.6L365.2 248.6L368.8 238.3L372 227.8L374.9 217.1L377.4 206.2L379.6 195.1L381.5 183.8L383 172.3L384.2 160.5L385.1 148.6L346.9 143.4L344.4 154L341.7 164.2L338.7 174L335.4 183.5L331.9 192.6L328.2 201.3L324.2 209.6L320 217.6L315.6 225.2L311 232.4L306.3 239.3L301.3 245.9L296.2 252.1L290.9 258L285.4 263.6L279.8 269L274 274L268.1 278.8L261.9 283.4L255.6 287.7L249.1 291.8L242.3 295.7L235.4 299.4L228.2 302.9L220.7 306.2L213 309.4L205.1 312.3L196.8 315.1L188.3 317.6L179.4 320L170.2 322.2L160.7 324.1L150.9 325.8L140.8 327.3Z" fill="none" stroke="#f7f1e2" stroke-width="5.3" opacity=".7"/>
<path d="M146 366L172.8 361.4L198 355.1L221.4 347.1L243.1 337.4L263.1 325.9L281.4 312.8L297.9 297.9L312.8 281.4L325.9 263.1L337.4 243.1L347.1 221.4L355.1 198L361.4 172.8L366 146" fill="none" stroke="#7a3b1e" stroke-width="5.3" opacity=".85" stroke-dasharray="18 13" stroke-linecap="round"/>
<g transform="translate(146 366) rotate(-7.7)"><rect x="-22.6" y="-31" width="45.3" height="62" rx="7" fill="#7a3b1e"/><rect x="-22.6" y="-31" width="45.3" height="62" rx="7" fill="none" stroke="#f7f1e2" stroke-width="5.3" opacity=".8"/></g>
</g>
<circle cx="256" cy="256" r="220" fill="url(#fp-depth)"/>
</g>
<g id="rim" fill="none">
<circle cx="256" cy="256" r="216" stroke="#7a3b1e" stroke-width="7" opacity=".9"/>
<circle cx="256" cy="256" r="201" stroke="#fff" stroke-width="5.3" opacity=".28"/>
</g>
<g id="stamp">
<circle cx="322.4" cy="115.3" r="27" fill="none" stroke="#7a3b1e" stroke-width="10"/>
<circle cx="322.4" cy="115.3" r="10" fill="#7a3b1e"/>
</g>
<title>Warm Mako</title>
</svg>
