<?xml version="1.0" encoding="UTF-8"?>
<svg xmlns="http://www.w3.org/2000/svg" width="96" height="96" viewBox="0 0 512 512" role="img" aria-label="MAKO">
<defs><clipPath id="disc"><circle cx="256" cy="256" r="220"/></clipPath>
<linearGradient id="depth" x1="0" y1="0" x2="0" y2="1"><stop offset="0" stop-color="#fff" stop-opacity=".18"/><stop offset="1" stop-color="#000" stop-opacity=".28"/></linearGradient></defs>
<g id="base" clip-path="url(#disc)">
<circle cx="256" cy="256" r="220" fill="#4c9bc6"/>
<circle cx="256" cy="256" r="220" fill="url(#depth)"/>
</g>
<g id="rim" fill="none">
<circle cx="256" cy="256" r="216" stroke="#0d3558" stroke-width="7" opacity=".9"/>
<circle cx="256" cy="256" r="201" stroke="#fff" stroke-width="5.3" opacity=".28"/>
</g>
<g id="art" clip-path="url(#disc)">
<g transform="rotate(-2.6 256 256)">
<rect x="-40" y="183.7" width="592" height="9" fill="#ffffff" opacity=".9"/>
<rect x="100.5" y="161.7" width="9" height="18" fill="#0d3558" opacity=".5"/>
<rect x="142.5" y="161.7" width="9" height="18" fill="#0d3558" opacity=".5"/>
<rect x="184.5" y="161.7" width="9" height="18" fill="#0d3558" opacity=".5"/>
<rect x="-40" y="209.7" width="592" height="108" fill="#0d3558"/>
<rect x="-40" y="317.7" width="592" height="18" fill="#000" opacity=".26"/>
<rect x="-40" y="335.7" width="592" height="7" fill="#0d3558" opacity=".55"/>
<rect x="360" y="230.7" width="66" height="66" rx="8" fill="#ffffff"/>
<path d="M379.8 247.9 L404.9 263.7 L379.8 279.6" fill="none" stroke="#0d3558" stroke-width="12" stroke-linejoin="miter"/>
<rect x="86" y="240.7" width="35.6" height="46" rx="4" fill="#ffffff"/>
<rect x="133.6" y="240.7" width="35.6" height="46" rx="4" fill="#ffffff"/>
<rect x="181.2" y="240.7" width="35.6" height="46" rx="4" fill="#ffffff"/>
<rect x="228.8" y="240.7" width="35.6" height="46" rx="4" fill="#051421"/>
<rect x="276.4" y="240.7" width="35.6" height="46" rx="4" fill="#051421"/>
</g>
</g>
<g id="stamp">
<rect x="327" y="236.7" width="18" height="18" rx="3" fill="#ffffff" transform="rotate(-2.6 256 256)"/>
<rect x="327" y="270.7" width="18" height="18" rx="3" fill="#ffffff" transform="rotate(-2.6 256 256)"/>
</g>
<title>MAKO</title>
</svg>
