<?xml version="1.0" encoding="UTF-8"?>
<svg xmlns="http://www.w3.org/2000/svg" width="220" height="220" viewBox="0 0 512 512" role="img" aria-label="Warm Mako">
<defs><clipPath id="disc"><circle cx="256" cy="256" r="220"/></clipPath>
<linearGradient id="depth" x1="0" y1="0" x2="0" y2="1"><stop offset="0" stop-color="#fff" stop-opacity=".18"/><stop offset="1" stop-color="#000" stop-opacity=".28"/></linearGradient></defs>
<g id="base" clip-path="url(#disc)">
<circle cx="256" cy="256" r="220" fill="#e8d8b0"/>
<circle cx="256" cy="256" r="220" fill="url(#depth)"/>
</g>
<g id="rim" fill="none">
<circle cx="256" cy="256" r="216" stroke="#7a3b1e" stroke-width="7" opacity=".9"/>
<circle cx="256" cy="256" r="201" stroke="#fff" stroke-width="3" opacity=".28"/>
</g>
<g id="art" clip-path="url(#disc)">
<g transform="rotate(-6 256 256)">
<rect x="-60" y="122.8" width="632" height="266.4" fill="#7a3b1e" opacity=".16"/>
<path d="M16.5 140.8 H459.8" stroke="#7a3b1e" stroke-width="6" opacity=".3" stroke-linecap="round"/>
<path d="M16.5 371.2 H459.8" stroke="#7a3b1e" stroke-width="6" opacity=".3" stroke-linecap="round"/>
<path d="M104.5 156.8 L188.5 256 L104.5 355.2" fill="none" stroke="#7a3b1e" stroke-width="30" stroke-linecap="butt" stroke-linejoin="miter" opacity="0.42"/>
<path d="M161.8 156.8 L245.8 256 L161.8 355.2" fill="none" stroke="#7a3b1e" stroke-width="30" stroke-linecap="butt" stroke-linejoin="miter" opacity="0.56"/>
<path d="M219.1 156.8 L303.1 256 L219.1 355.2" fill="none" stroke="#7a3b1e" stroke-width="30" stroke-linecap="butt" stroke-linejoin="miter" opacity="0.71"/>
<path d="M276.5 156.8 L360.5 256 L276.5 355.2" fill="none" stroke="#7a3b1e" stroke-width="30" stroke-linecap="butt" stroke-linejoin="miter" opacity="0.85"/>
<path d="M333.8 156.8 L417.8 256 L333.8 355.2" fill="none" stroke="#7a3b1e" stroke-width="30" stroke-linecap="butt" stroke-linejoin="miter" opacity="1.00"/>
<path d="M333.8 156.8 L417.8 256 L333.8 355.2" fill="none" stroke="#ffffff" stroke-width="10.2" stroke-linecap="butt" stroke-linejoin="miter" opacity=".95"/>
</g>
</g>
<g id="stamp">
<rect x="248.9" y="119.8" width="26" height="26" rx="4" fill="#111318" transform="rotate(-6 261.9 132.8)"/>
<rect x="248.9" y="119.8" width="26" height="26" rx="4" fill="none" stroke="#7a3b1e" stroke-width="7" transform="rotate(-6 261.9 132.8)"/>
</g>
<g id="text">
<rect x="161.6" y="402" width="188.7" height="38" rx="7" fill="#7a3b1e"/>
<rect x="172.6" y="410" width="7" height="22" rx="3.5" fill="#ffffff" opacity=".95"/>
<text x="262" y="428" text-anchor="middle" font-family="sans-serif" font-size="22" font-weight="700" letter-spacing="2" fill="#ffffff">Warm Mako</text>
</g>
<title>Warm Mako</title>
</svg>
