<?xml version="1.0" encoding="UTF-8"?>
<svg xmlns="http://www.w3.org/2000/svg" width="700" height="611" viewBox="0 0 470 410" role="img" aria-label="Warm Mako vs Rival — botanical match plate (stacked)"><rect width="470" height="410" fill="#f6efdd"/><rect x="3" y="3" width="464" height="404" fill="none" stroke="#8d7f5e" stroke-width="1.6" opacity=".85"/><rect x="8" y="8" width="454" height="394" fill="none" stroke="#cdbf9c" stroke-width=".9"/><rect x="3" y="3" width="464" height="7" fill="#417895" opacity=".55"/><path d="M0 -7.5Q3.9 0 0 7.5Q-3.9 0 0 -7.5Z" fill="#8d7f5e" opacity="0.5" transform="translate(16 16) rotate(135)"/><path d="M0 -7.5Q3.9 0 0 7.5Q-3.9 0 0 -7.5Z" fill="#8d7f5e" opacity="0.5" transform="translate(454 16) rotate(-135)"/><path d="M0 -7.5Q3.9 0 0 7.5Q-3.9 0 0 -7.5Z" fill="#8d7f5e" opacity="0.5" transform="translate(16 394) rotate(45)"/><path d="M0 -7.5Q3.9 0 0 7.5Q-3.9 0 0 -7.5Z" fill="#8d7f5e" opacity="0.5" transform="translate(454 394) rotate(-45)"/><text x="235" y="32" font-family="sans-serif" font-size="10.5" text-anchor="middle" letter-spacing="3.4" fill="#7d735c">MATCH PLATE</text><g><circle cx="89" cy="124.66" r="59" fill="#8d7f5e" opacity=".16"/><circle cx="89" cy="122" r="61.65" fill="#efe5cd"/><g transform="translate(30 63) scale(0.23) translate(0 0)">
<defs><clipPath id="a-disc"><circle cx="256" cy="256" r="220"/></clipPath>
<radialGradient id="a-depth" cx=".38" cy=".32" r=".78"><stop offset="0" stop-color="#fff" stop-opacity=".16"/><stop offset=".72" stop-color="#fff" stop-opacity="0"/><stop offset="1" stop-color="#000" stop-opacity=".20"/></radialGradient></defs>
<g id="a-base" clip-path="url(#a-disc)">
<circle cx="256" cy="256" r="220" fill="#e8d8b0"/>
<circle cx="256" cy="256" r="220" fill="#f1e5c8" opacity=".93"/>
<g id="a-grain" fill="#ae8669">
<rect x="111" y="188.7" width="9.6" height="2" transform="rotate(96.5 111 188.7)" opacity="0.10"/>
<circle cx="343.3" cy="228.3" r="1.4" opacity="0.15"/>
<circle cx="161.2" cy="420.9" r="2.3" opacity="0.13"/>
<rect x="225.9" y="121.5" width="11.2" height="2.3" transform="rotate(110.9 225.9 121.5)" opacity="0.12"/>
<circle cx="291.1" cy="280.5" r="1.9" opacity="0.10"/>
<circle cx="85.4" cy="278.7" r="2.8" opacity="0.15"/>
<rect x="327.6" y="170.5" width="4.8" height="1" transform="rotate(125.3 327.6 170.5)" opacity="0.13"/>
<circle cx="265" cy="456.3" r="2.3" opacity="0.12"/>
<circle cx="148.5" cy="148.8" r="3.3" opacity="0.10"/>
<rect x="332.6" y="259.3" width="6.4" height="1.3" transform="rotate(139.7 332.6 259.3)" opacity="0.15"/>
<circle cx="115.5" cy="374" r="2.8" opacity="0.13"/>
<circle cx="272.7" cy="128.7" r="1.4" opacity="0.12"/>
<rect x="376.8" y="428.3" width="8" height="1.6" transform="rotate(154.1 376.8 428.3)" opacity="0.10"/>
<circle cx="95.3" cy="220.4" r="3.3" opacity="0.15"/>
<circle cx="342.3" cy="206.1" r="1.9" opacity="0.13"/>
<rect x="197.6" y="441.2" width="9.6" height="2" transform="rotate(168.5 197.6 441.2)" opacity="0.12"/>
<circle cx="195.4" cy="126.1" r="1.4" opacity="0.10"/>
<circle cx="309.7" cy="278.2" r="2.3" opacity="0.15"/>
<rect x="90.1" y="316.3" width="11.2" height="2.3" transform="rotate(2.9 90.1 316.3)" opacity="0.13"/>
<circle cx="310.7" cy="151.1" r="1.9" opacity="0.12"/>
<circle cx="308.8" cy="453.4" r="2.8" opacity="0.10"/>
<rect x="123.8" y="171.6" width="4.8" height="1" transform="rotate(17.3 123.8 171.6)" opacity="0.15"/>
<circle cx="340.9" cy="241.1" r="2.3" opacity="0.13"/>
<circle cx="141.6" cy="404.7" r="3.3" opacity="0.12"/>
<rect x="244.4" y="122.2" width="6.4" height="1.3" transform="rotate(31.7 244.4 122.2)" opacity="0.10"/>
<circle cx="277.7" cy="276" r="2.8" opacity="0.15"/>
<circle cx="86.7" cy="255.8" r="1.4" opacity="0.13"/>
<rect x="335.1" y="183.7" width="8" height="1.6" transform="rotate(46.1 335.1 183.7)" opacity="0.12"/>
<circle cx="238.4" cy="453.4" r="3.3" opacity="0.10"/>
<circle cx="165.7" cy="137.9" r="1.9" opacity="0.15"/>
<rect x="325.1" y="268.3" width="9.6" height="2" transform="rotate(60.5 325.1 268.3)" opacity="0.13"/>
<circle cx="103.3" cy="352.8" r="1.4" opacity="0.12"/>
<circle cx="288.5" cy="135.7" r="2.3" opacity="0.10"/>
<rect x="351.7" y="440.8" width="11.2" height="2.3" transform="rotate(74.9 351.7 440.8)" opacity="0.15"/>
<circle cx="104.2" cy="200.3" r="1.9" opacity="0.13"/>
<circle cx="343.6" cy="220" r="2.8" opacity="0.12"/>
<rect x="174.5" y="429.5" width="4.8" height="1" transform="rotate(89.3 174.5 429.5)" opacity="0.10"/>
<circle cx="214.3" cy="122.4" r="2.3" opacity="0.15"/>
<circle cx="298.5" cy="280.7" r="3.3" opacity="0.13"/>
<rect x="86.2" y="293.1" width="6.4" height="1.3" transform="rotate(103.7 86.2 293.1)" opacity="0.12"/>
<circle cx="321.8" cy="162.7" r="2.8" opacity="0.10"/>
<circle cx="281.7" cy="456.4" r="1.4" opacity="0.15"/>
<rect x="138.6" y="156.7" width="8" height="1.6" transform="rotate(118.1 138.6 156.7)" opacity="0.13"/>
<circle cx="336.4" cy="252.8" r="3.3" opacity="0.12"/>
<circle cx="124.6" cy="386.4" r="1.9" opacity="0.10"/>
<rect x="262.2" y="125.4" width="9.6" height="2" transform="rotate(132.5 262.2 125.4)" opacity="0.15"/>
<circle cx="391.5" cy="418.8" r="1.4" opacity="0.13"/>
<circle cx="91.1" cy="233.6" r="2.3" opacity="0.12"/>
<rect x="340.3" y="197.5" width="11.2" height="2.3" transform="rotate(146.9 340.3 197.5)" opacity="0.10"/>
<circle cx="212.8" cy="446.9" r="1.9" opacity="0.15"/>
<circle cx="183.9" cy="129.8" r="2.8" opacity="0.13"/>
<rect x="316" y="275.2" width="4.8" height="1" transform="rotate(161.3 316 275.2)" opacity="0.12"/>
<circle cx="94.2" cy="330.5" r="2.3" opacity="0.10"/>
<circle cx="302.8" cy="144.7" r="3.3" opacity="0.15"/>
</g>
<circle cx="256" cy="256" r="220" fill="url(#a-depth)"/>
</g>
<g id="a-art" clip-path="url(#a-disc)">
<g id="a-ghost" transform="rotate(-24.9 256 256) translate(42.7 21.4)" opacity=".42">
<g fill="#c6a88b">
<path d="M108.4 428.6L131.4 420.1L153.9 410.7L175.5 400.5L196.4 389.6L216.5 377.8L235.8 365.3L254.3 352L271.9 337.9L288.8 323L304.8 307.4L320.1 291L334.5 273.9L348.1 256L360.9 237.3L372.9 217.9L384.1 197.7L394.5 176.8L404.1 155.2L412.9 132.8L420.9 109.8L411.1 106.2L402.4 128.7L393 150.3L382.9 171.2L372.1 191.1L360.5 210.3L348.2 228.7L335.2 246.3L321.5 263.1L307 279L291.8 294.2L275.9 308.6L259.3 322.2L241.9 335.1L223.8 347.1L205 358.4L185.4 368.9L165.2 378.7L144.1 387.7L122.4 395.9L99.6 403.4Z"/>
<path d="M155.5 396.4Q187.3 426.8 239.5 416.5Q194.9 395.1 155.5 396.4Z"/>
<path d="M155.5 396.4Q178.1 359.4 186 305.3Q147.3 349.1 155.5 396.4Z"/>
<path d="M192.9 378.2Q235.7 416.4 303.6 402.1Q244.4 376.1 192.9 378.2Z"/>
<path d="M192.9 378.2Q219.5 331.3 226.1 263.8Q179.9 319.9 192.9 378.2Z"/>
<path d="M227.9 357.4Q276.2 393.9 346.5 372.9Q281.9 350.7 227.9 357.4Z"/>
<path d="M227.9 357.4Q254.1 308.5 257.7 238.8Q211.8 297.9 227.9 357.4Z"/>
<path d="M260.4 334.2Q307.3 359.5 364.7 330.3Q305.8 319.7 260.4 334.2Z"/>
<path d="M260.4 334.2Q280.4 287.6 278.2 223.8Q241.1 281.2 260.4 334.2Z"/>
<path d="M290.4 308.4Q335.2 335.8 394.9 313.6Q337 299.8 290.4 308.4Z"/>
<path d="M290.4 308.4Q305.9 265.8 300.2 209.1Q270 262.3 290.4 308.4Z"/>
<path d="M318 280.1Q360.1 299.7 410 273.6Q357.7 267.4 318 280.1Z"/>
<path d="M318 280.1Q326.8 239.7 315.4 188.8Q294.4 240.6 318 280.1Z"/>
<path d="M343 249.3Q380.1 257.3 413.3 225.6Q371 230.1 343 249.3Z"/>
<path d="M343 249.3Q346.7 212.5 331.8 168.3Q318.4 216.4 343 249.3Z"/>
<path d="M365.6 216Q399.8 224 432.4 196.6Q392.8 200.1 365.6 216Z"/>
<path d="M365.6 216Q370.1 185.9 358.1 149.6Q345.4 188.7 365.6 216Z"/>
<path d="M385.6 180.2Q413.6 181.2 433.6 153.9Q403.4 162.6 385.6 180.2Z"/>
<path d="M385.6 180.2Q382.9 152.5 365.6 122.1Q362.8 159.5 385.6 180.2Z"/>
<path d="M403.2 141.9Q427.5 142.9 446 120Q419.6 127.4 403.2 141.9Z"/>
<path d="M403.2 141.9Q400.2 119.5 385 95.6Q383.9 126 403.2 141.9Z"/>
</g>
</g>
<g id="a-frond" transform="rotate(-15.7 256 256)">
<g fill="#7a3b1e" stroke="#f1e5c8" stroke-width="2.6" stroke-opacity=".6" stroke-linejoin="round">
<path d="M108.4 428.6L131.4 420.1L153.9 410.7L175.5 400.5L196.4 389.6L216.5 377.8L235.8 365.3L254.3 352L271.9 337.9L288.8 323L304.8 307.4L320.1 291L334.5 273.9L348.1 256L360.9 237.3L372.9 217.9L384.1 197.7L394.5 176.8L404.1 155.2L412.9 132.8L420.9 109.8L411.1 106.2L402.4 128.7L393 150.3L382.9 171.2L372.1 191.1L360.5 210.3L348.2 228.7L335.2 246.3L321.5 263.1L307 279L291.8 294.2L275.9 308.6L259.3 322.2L241.9 335.1L223.8 347.1L205 358.4L185.4 368.9L165.2 378.7L144.1 387.7L122.4 395.9L99.6 403.4Z"/>
<path d="M149.9 398.8Q180.1 428.2 230.2 419Q187.7 398 149.9 398.8Z"/>
<path d="M149.9 398.8Q172 363.6 180.1 311.9Q142.6 353.4 149.9 398.8Z"/>
<path d="M177.2 386.3Q215 422.6 277.6 411.7Q224.3 386 177.2 386.3Z"/>
<path d="M177.2 386.3Q203 344.3 211.1 282.8Q167.2 332.5 177.2 386.3Z"/>
<path d="M203.2 372.5Q249.1 411.7 320.3 395.1Q257.3 369.1 203.2 372.5Z"/>
<path d="M203.2 372.5Q232.2 325.4 240 256.2Q190.8 312.3 203.2 372.5Z"/>
<path d="M227.9 357.4Q276.6 389.4 341.9 363.2Q278.8 346 227.9 357.4Z"/>
<path d="M227.9 357.4Q254.1 308.5 257.8 238.9Q211.9 297.9 227.9 357.4Z"/>
<path d="M251.4 341.1Q298.2 377.7 368.3 360.4Q304.8 337.4 251.4 341.1Z"/>
<path d="M251.4 341.1Q274.3 295.1 275.2 230.6Q234.4 286.5 251.4 341.1Z"/>
<path d="M273.6 323.5Q319.6 353.2 382.3 331Q322.2 315.1 273.6 323.5Z"/>
<path d="M273.6 323.5Q290.6 277.6 285.7 216.2Q252.6 273.3 273.6 323.5Z"/>
<path d="M294.5 304.5Q338.3 321.8 385.4 289.9Q332.7 286.7 294.5 304.5Z"/>
<path d="M294.5 304.5Q306.6 260.2 297.3 203Q271.1 259.2 294.5 304.5Z"/>
<path d="M314.2 284.3Q356.6 303.1 405.6 275.6Q353.5 270.3 314.2 284.3Z"/>
<path d="M314.2 284.3Q327.5 246.4 320.8 196.4Q294.7 244 314.2 284.3Z"/>
<path d="M332.6 262.9Q371.3 272.4 407.1 240.2Q362.5 243.5 332.6 262.9Z"/>
<path d="M332.6 262.9Q336.8 223.4 321.5 175.9Q306.8 227.2 332.6 262.9Z"/>
<path d="M349.7 240.1Q386.7 250.2 423.1 221.3Q379.9 223.5 349.7 240.1Z"/>
<path d="M349.7 240.1Q352.8 204.7 337.8 162.6Q325.5 208.9 349.7 240.1Z"/>
<path d="M365.6 216Q400.4 226.3 436.3 200.8Q395.1 202 365.6 216Z"/>
<path d="M365.6 216Q366.5 184 350.6 146.8Q342.1 189.2 365.6 216Z"/>
<path d="M380.2 190.7Q411.8 198.3 443 173.9Q406.1 176.8 380.2 190.7Z"/>
<path d="M380.2 190.7Q381.9 163.2 368.5 131.3Q360 167.5 380.2 190.7Z"/>
<path d="M393.5 164.1Q421.5 168.5 446.5 144.8Q414.8 150 393.5 164.1Z"/>
<path d="M393.5 164.1Q393.3 139.7 379.5 112.2Q374.3 144.8 393.5 164.1Z"/>
<path d="M405.5 136.2Q430.2 139.3 451.8 118.2Q424.1 123.5 405.5 136.2Z"/>
<path d="M405.5 136.2Q401.3 114.3 385.2 91.3Q385.8 121.3 405.5 136.2Z"/>
<path d="M416 108Q425.7 79.6 435.4 97.7" fill="none" stroke="#7a3b1e" stroke-width="7" stroke-linecap="round"/>
</g>
<path d="M149.9 398.8L223.3 417.2M149.9 398.8L174.8 327.3M177.2 386.3L266 408.7M177.2 386.3L205.7 299.3M203.2 372.5L306.6 392.4M203.2 372.5L235 272.1M227.9 357.4L333.4 362.7M227.9 357.4L253.7 255M251.4 341.1L349.2 357.2M251.4 341.1L272.3 244.1M273.6 323.5L366.1 329.9M273.6 323.5L284 231.3M294.5 304.5L379.7 290.8M294.5 304.5L296.9 218.3M314.2 284.3L393.7 276.7M314.2 284.3L320.2 204.7M332.6 262.9L402.8 241.5M332.6 262.9L323.3 190M349.7 240.1L414.6 223.5M349.7 240.1L339.5 173.9M365.6 216L424.7 203.3M365.6 216L352.8 156.9M380.2 190.7L432.4 176.7M380.2 190.7L369.7 137.7M393.5 164.1L438.3 147.8M393.5 164.1L381.1 118.1M405.5 136.2L443.9 121.3M405.5 136.2L388.6 98.7" stroke="#f1e5c8" stroke-width="1.7" opacity=".38" fill="none"/>
</g>
<g transform="rotate(46.3 150 168)"><rect x="98" y="155" width="104" height="26" rx="2" fill="#f1e5c8" opacity=".3"/><rect x="98" y="155" width="104" height="26" rx="2" fill="none" stroke="#f1e5c8" stroke-width="1.4" opacity=".5"/></g>
<g transform="rotate(46.3 330 330)"><rect x="278" y="317" width="104" height="26" rx="2" fill="#f1e5c8" opacity=".3"/><rect x="278" y="317" width="104" height="26" rx="2" fill="none" stroke="#f1e5c8" stroke-width="1.4" opacity=".5"/></g>
</g>
<g id="a-rim" fill="none">
<circle cx="256" cy="256" r="216" stroke="#7a3b1e" stroke-width="7" opacity=".9"/>
<circle cx="256" cy="256" r="205" stroke="#d6bf99" stroke-width="3" opacity=".55"/>
</g>
<g id="a-text">
<g id="a-plaque" transform="rotate(1.8 256 418)">
<rect x="150" y="386" width="212" height="64" rx="3" fill="#f1e5c8" stroke="#b89376" stroke-width="1.6" opacity=".95"/>
<rect x="155" y="391" width="202" height="54" rx="2" fill="none" stroke="#b89376" stroke-width=".8" opacity=".6"/>
<text x="256" y="420" text-anchor="middle" font-family="serif" font-size="23" letter-spacing="1.5" fill="#7a3b1e">MAKO</text>
<text x="256" y="439" text-anchor="middle" font-family="sans-serif" font-size="11" letter-spacing="3" fill="#a5785b">No. 658</text>
</g>
</g>
<title>MAKO</title>
</g><circle cx="89" cy="122" r="61.65" fill="none" stroke="#417895" stroke-width="1.6" opacity=".55"/><circle cx="89" cy="122" r="66.67" fill="none" stroke="#cdbf9c" stroke-width=".9" opacity=".85"/></g><text x="158" y="70" font-family="sans-serif" font-size="10.5" letter-spacing="1.8" fill="#7d735c">UNRECORDED MOLD</text><text x="158" y="93" font-family="serif" font-size="25" letter-spacing="0.2" fill="#2c2a20">Warm Mako</text><text x="158" y="105.5" font-family="serif" font-size="11" font-style="italic" fill="#7d735c">first run</text><path d="M158 113L224.64 113" stroke="#417895" stroke-width="1.6" opacity="0.7" fill="none"/><path d="M158 122L354 122" stroke="#8d7f5e" stroke-width="1.1" opacity="0.7" fill="none"/><text x="182.5" y="141.32" font-family="serif" font-size="21" text-anchor="middle" fill="#2c2a20">5</text><text x="182.5" y="153.92" font-family="sans-serif" font-size="9.31" text-anchor="middle" letter-spacing="1.5" fill="#7d735c">SPEED</text><path d="M207 125L207 144.05" stroke="#cdbf9c" stroke-width="0.8" fill="none"/><text x="231.5" y="141.32" font-family="serif" font-size="21" text-anchor="middle" fill="#2c2a20">4</text><text x="231.5" y="153.92" font-family="sans-serif" font-size="9.31" text-anchor="middle" letter-spacing="1.5" fill="#7d735c">GLIDE</text><path d="M256 125L256 144.05" stroke="#cdbf9c" stroke-width="0.8" fill="none"/><text x="280.5" y="141.32" font-family="serif" font-size="21" text-anchor="middle" fill="#2c2a20">-1</text><text x="280.5" y="153.92" font-family="sans-serif" font-size="9.31" text-anchor="middle" letter-spacing="1.5" fill="#7d735c">TURN</text><path d="M305 125L305 144.05" stroke="#cdbf9c" stroke-width="0.8" fill="none"/><text x="329.5" y="141.32" font-family="serif" font-size="21" text-anchor="middle" fill="#2c2a20">1</text><text x="329.5" y="153.92" font-family="sans-serif" font-size="9.31" text-anchor="middle" letter-spacing="1.5" fill="#7d735c">FADE</text><path d="M158 164.42L354 164.42" stroke="#417895" stroke-width="1.4" opacity="0.55" fill="none"/><circle cx="412" cy="122.24" r="32" fill="#8d7f5e" opacity=".18"/><circle cx="412" cy="120" r="32" fill="#f6efdd" stroke="#417895" stroke-width="2"/><circle cx="412" cy="120" r="26.24" fill="none" stroke="#cdbf9c" stroke-width=".9"/><text x="412" y="129.6" font-family="serif" font-size="33.6" text-anchor="middle" fill="#2c2a20">–</text><text x="412" y="166.72" font-family="sans-serif" font-size="9" text-anchor="middle" letter-spacing="1.8" fill="#7d735c">SCORE</text><path d="M24 206L446 206" stroke="#cdbf9c" stroke-width="1" fill="none"/><g><circle cx="89" cy="292.65" r="59" fill="#8d7f5e" opacity=".16"/><circle cx="89" cy="290" r="61.65" fill="#efe5cd"/><g transform="translate(30 231) scale(0.23) translate(0 0)">
<defs><clipPath id="b-disc"><circle cx="256" cy="256" r="220"/></clipPath>
<radialGradient id="b-depth" cx=".38" cy=".32" r=".78"><stop offset="0" stop-color="#fff" stop-opacity=".16"/><stop offset=".72" stop-color="#fff" stop-opacity="0"/><stop offset="1" stop-color="#000" stop-opacity=".20"/></radialGradient></defs>
<g id="b-base" clip-path="url(#b-disc)">
<circle cx="256" cy="256" r="220" fill="#e8d8b0"/>
<circle cx="256" cy="256" r="220" fill="#f1e5c8" opacity=".93"/>
<g id="b-grain" fill="#ae8669">
<rect x="449.6" y="185.8" width="9.6" height="2" transform="rotate(160.3 449.6 185.8)" opacity="0.10"/>
<circle cx="182.4" cy="396.8" r="1.4" opacity="0.15"/>
<circle cx="232.9" cy="169.1" r="2.3" opacity="0.13"/>
<rect x="415.5" y="358" width="11.2" height="2.3" transform="rotate(174.7 415.5 358)" opacity="0.12"/>
<circle cx="121.3" cy="279.5" r="1.9" opacity="0.10"/>
<circle cx="279.8" cy="225.1" r="2.8" opacity="0.15"/>
<rect x="270.5" y="426.6" width="4.8" height="1" transform="rotate(9.1 270.5 426.6)" opacity="0.13"/>
<circle cx="175" cy="181.4" r="2.3" opacity="0.12"/>
<circle cx="455.8" cy="256.5" r="3.3" opacity="0.10"/>
<rect x="144.5" y="357.6" width="6.4" height="1.3" transform="rotate(23.5 144.5 357.6)" opacity="0.15"/>
<circle cx="262.7" cy="181.6" r="2.8" opacity="0.13"/>
<circle cx="366.7" cy="401.2" r="1.4" opacity="0.12"/>
<rect x="130.8" y="233.5" width="8" height="1.6" transform="rotate(37.8 130.8 233.5)" opacity="0.10"/>
<circle cx="433.2" cy="143.9" r="3.3" opacity="0.15"/>
<circle cx="213.1" cy="414" r="1.9" opacity="0.13"/>
<rect x="211" y="168.8" width="9.6" height="2" transform="rotate(52.2 211 168.8)" opacity="0.12"/>
<circle cx="437.5" cy="322.8" r="1.4" opacity="0.10"/>
<circle cx="124.4" cy="309.9" r="2.3" opacity="0.15"/>
<rect x="279.6" y="205.9" width="11.2" height="2.3" transform="rotate(66.6 279.6 205.9)" opacity="0.13"/>
<circle cx="308.1" cy="423.7" r="1.9" opacity="0.12"/>
<circle cx="154.9" cy="197.1" r="2.8" opacity="0.10"/>
<rect x="455" y="212.8" width="4.8" height="1" transform="rotate(81 455 212.8)" opacity="0.15"/>
<circle cx="166" cy="383.3" r="2.3" opacity="0.13"/>
<circle cx="245.4" cy="172.3" r="3.3" opacity="0.12"/>
<rect x="398.5" y="376.8" width="6.4" height="1.3" transform="rotate(95.4 398.5 376.8)" opacity="0.10"/>
<circle cx="122.9" cy="261.2" r="2.8" opacity="0.15"/>
<circle cx="272.9" cy="239.2" r="1.4" opacity="0.13"/>
<rect x="247.8" y="424.2" width="8" height="1.6" transform="rotate(109.8 247.8 424.2)" opacity="0.12"/>
<circle cx="188.5" cy="174.7" r="3.3" opacity="0.10"/>
<circle cx="451.5" cy="282.8" r="1.9" opacity="0.15"/>
<rect x="134.6" y="340" width="9.6" height="2" transform="rotate(124.2 134.6 340)" opacity="0.13"/>
<circle cx="271.1" cy="189.7" r="1.4" opacity="0.12"/>
<circle cx="345.1" cy="412.4" r="2.3" opacity="0.10"/>
<rect x="138.5" y="218.2" width="11.2" height="2.3" transform="rotate(138.6 138.5 218.2)" opacity="0.15"/>
<circle cx="444.5" cy="169.5" r="1.9" opacity="0.13"/>
<circle cx="193.6" cy="404.1" r="2.8" opacity="0.12"/>
<rect x="224.7" y="168.3" width="4.8" height="1" transform="rotate(153 224.7 168.3)" opacity="0.10"/>
<circle cx="424.8" cy="345.3" r="2.3" opacity="0.15"/>
<circle cx="121.6" cy="291" r="3.3" opacity="0.13"/>
<rect x="281" y="217.4" width="6.4" height="1.3" transform="rotate(167.4 281 217.4)" opacity="0.12"/>
<circle cx="284.8" cy="426.5" r="2.8" opacity="0.10"/>
<circle cx="167" cy="186.7" r="1.4" opacity="0.15"/>
<rect x="456.6" y="239.9" width="8" height="1.6" transform="rotate(1.8 456.6 239.9)" opacity="0.13"/>
<circle cx="152" cy="367.9" r="3.3" opacity="0.12"/>
<circle cx="256.6" cy="177.5" r="1.9" opacity="0.10"/>
<rect x="379.4" y="392.8" width="9.6" height="2" transform="rotate(16.2 379.4 392.8)" opacity="0.15"/>
<circle cx="127.1" cy="243.7" r="1.4" opacity="0.13"/>
<circle cx="424.5" cy="128.8" r="2.3" opacity="0.12"/>
<rect x="226" y="418.7" width="11.2" height="2.3" transform="rotate(30.6 226 418.7)" opacity="0.10"/>
<circle cx="202.4" cy="170.3" r="1.9" opacity="0.15"/>
<circle cx="443.9" cy="308" r="2.8" opacity="0.13"/>
<rect x="127.4" y="321.6" width="4.8" height="1" transform="rotate(45 127.4 321.6)" opacity="0.12"/>
<circle cx="277.2" cy="199.3" r="2.3" opacity="0.10"/>
<circle cx="322.4" cy="420.4" r="3.3" opacity="0.15"/>
</g>
<circle cx="256" cy="256" r="220" fill="url(#b-depth)"/>
</g>
<g id="b-art" clip-path="url(#b-disc)">
<path d="M225.7 191.4L221.7 210.4L218.4 229.5L215.8 248.5L214 267.5L212.9 286.4L212.6 305.3L213.1 324.1L214.3 342.9L216.2 361.7L218.9 380.4L222.4 399L226.6 417.7L231.6 436.2L237.3 454.7L243.8 473.1L251 491.2L275.9 480.8L268.2 463.4L261.2 446.2L255 428.9L249.5 411.4L244.7 393.9L240.6 376.3L237.3 358.6L234.6 340.8L232.7 322.9L231.5 304.8L231 286.7L231.2 268.4L232.2 250L233.9 231.5L236.3 212.9L239.5 194.1Z" fill="#7a3b1e"/>
<path d="M222 299.3Q263.3 314.6 318.9 318.7Q273.3 264.2 222 299.3Z" fill="#7a3b1e" stroke="#f1e5c8" stroke-width="2.4" stroke-opacity=".5"/>
<path d="M222 299.3L299.5 314.8" stroke="#f1e5c8" stroke-width="2" opacity=".4" fill="none"/>
<path d="M227.3 363.9Q178.4 338.1 149.7 393.4Q196.7 386.2 227.3 363.9Z" fill="#7a3b1e" stroke="#f1e5c8" stroke-width="2.4" stroke-opacity=".5"/>
<path d="M227.3 363.9L153.4 392" stroke="#f1e5c8" stroke-width="2" opacity=".4" fill="none"/>
<path d="M318.8 194.3L366.6 216.8L314 221.3Z" fill="#7a3b1e"/>
<path d="M304.3 240.6L332.2 285.2L285.6 260.8Z" fill="#a5785b"/>
<path d="M267.1 271.8L267 327.1L240.4 278.6Z" fill="#7a3b1e"/>
<path d="M218.9 277.9L193.1 311.8L192.8 269.2Z" fill="#a5785b"/>
<path d="M175 256.9L126.7 278.3L157.8 235.5Z" fill="#7a3b1e"/>
<path d="M149.5 215.6L106 206.5L146.5 188.3Z" fill="#a5785b"/>
<path d="M150.3 167L120.5 136.8L162.6 142.4Z" fill="#7a3b1e"/>
<path d="M177.3 126.6L161.4 73L200.9 112.6Z" fill="#a5785b"/>
<path d="M221.8 107.2L237.3 56.9L249.3 108.2Z" fill="#7a3b1e"/>
<path d="M269.8 115L310.7 80L292.4 130.6Z" fill="#a5785b"/>
<path d="M305.9 147.4L356.7 141.2L316.5 172.8Z" fill="#7a3b1e"/>
<circle cx="232.6" cy="192.8" r="93.7" fill="#7a3b1e"/>
<path d="M232.6 192.8L242.9 203.7L247.8 218.6L246.1 235.7L237.4 252.5L221.7 266.9L200 276.6M232.6 192.8L235.3 207.5L231.4 222.7L220.8 236.1L204.3 245.6L183.4 249.3L159.9 245.7M232.6 192.8L226.9 206.6L215.4 217.3L199.2 222.8L180.2 221.9L160.6 213.7L142.8 197.9M232.6 192.8L220.3 201.4L204.8 204.1L188.2 200L172.8 189L160.7 171.4L154.2 148.6M232.6 192.8L217.6 193.4L203.1 187.2L191.3 174.8L184.3 157.2L183.7 136L190.6 113.2M232.6 192.8L219.7 185.2L210.8 172.2L207.6 155.4L211.2 136.7L222.2 118.5L240.3 103.1M232.6 192.8L225.8 179.4L225.4 163.7L231.8 147.8L244.9 134L264 124.6L287.5 121.5M232.6 192.8L234.1 177.8L242.3 164.4L256.2 154.5L274.7 150L295.8 152.4L317.3 162.5M232.6 192.8L242 181L256.1 174.1L273.2 173.3L291.1 179.5L307.6 193L320.3 213.1M232.6 192.8L246.8 188L262.4 189.7L277.3 198.3L289 213.3L295.6 233.5L295.4 257.2M232.6 192.8L247.2 196.4L259.3 206.3L267.2 221.6L268.9 240.5L263.6 261L250.5 280.9" fill="none" stroke="#f1e5c8" stroke-width="1.6" opacity=".22"/>
<g id="b-achenes" fill="#f1e5c8" opacity=".82">
<circle cx="237.5" cy="196" r="1.9"/>
<circle cx="223.1" cy="194.2" r="2"/>
<circle cx="240.3" cy="183.2" r="2.1"/>
<circle cx="233.5" cy="207.1" r="2.1"/>
<circle cx="220.9" cy="181.5" r="2.2"/>
<circle cx="250.6" cy="193.2" r="2.2"/>
<circle cx="217.9" cy="205.6" r="2.2"/>
<circle cx="235" cy="172" r="2.3"/>
<circle cx="245.7" cy="210.8" r="2.3"/>
<circle cx="209.6" cy="188.1" r="2.3"/>
<circle cx="253.8" cy="180" r="2.3"/>
<circle cx="225.3" cy="217.6" r="2.4"/>
<circle cx="220.8" cy="168.5" r="2.4"/>
<circle cx="258.7" cy="203" r="2.4"/>
<circle cx="205.5" cy="203.2" r="2.4"/>
<circle cx="246" cy="165.9" r="2.5"/>
<circle cx="241.1" cy="222.5" r="2.5"/>
<circle cx="205.5" cy="176.1" r="2.5"/>
<circle cx="264.8" cy="186.5" r="2.5"/>
<circle cx="212.6" cy="219.8" r="2.5"/>
<circle cx="229" cy="158.5" r="2.5"/>
<circle cx="259" cy="216.2" r="2.6"/>
<circle cx="196.5" cy="193.3" r="2.6"/>
<circle cx="259.4" cy="167.4" r="2.6"/>
<circle cx="229.9" cy="230.3" r="2.6"/>
<circle cx="208.7" cy="162.7" r="2.6"/>
<circle cx="271.3" cy="198.9" r="2.7"/>
<circle cx="199.3" cy="214.7" r="2.7"/>
<circle cx="242.5" cy="153.4" r="2.7"/>
<circle cx="252.3" cy="229.1" r="2.7"/>
<circle cx="192.9" cy="179" r="2.7"/>
<circle cx="271.8" cy="175.8" r="2.7"/>
<circle cx="214.9" cy="232.3" r="2.7"/>
<circle cx="218.8" cy="151" r="2.8"/>
<circle cx="271.6" cy="214.5" r="2.8"/>
<circle cx="188.5" cy="203.2" r="2.8"/>
<circle cx="258.4" cy="154.8" r="2.8"/>
<circle cx="239.4" cy="238.8" r="2.8"/>
<circle cx="196" cy="163" r="2.8"/>
<circle cx="280.3" cy="190" r="2.8"/>
<circle cx="198.9" cy="227.4" r="2.9"/>
<circle cx="234.1" cy="143.8" r="2.9"/>
<circle cx="265" cy="230.3" r="2.9"/>
<circle cx="182.8" cy="186.9" r="2.9"/>
<circle cx="273.7" cy="163.1" r="2.9"/>
<circle cx="222.2" cy="243" r="2.9"/>
<circle cx="206.1" cy="148.2" r="2.9"/>
<circle cx="282.8" cy="207.9" r="2.9"/>
<circle cx="184.9" cy="215.7" r="3"/>
<circle cx="252.4" cy="143.1" r="3"/>
<circle cx="251.7" cy="243.3" r="3"/>
<circle cx="183.9" cy="168.2" r="3"/>
<circle cx="285.6" cy="177.8" r="3"/>
<circle cx="203.3" cy="240" r="3"/>
<circle cx="222.2" cy="137.6" r="3"/>
<circle cx="277.9" cy="226.7" r="3"/>
<circle cx="175.8" cy="198.4" r="3"/>
<circle cx="271" cy="149.8" r="3.1"/>
<circle cx="233.3" cy="250.9" r="3.1"/>
<circle cx="192.5" cy="150" r="3.1"/>
<circle cx="291.5" cy="197.2" r="3.1"/>
<circle cx="185.7" cy="229.6" r="3.1"/>
<circle cx="242.4" cy="133.5" r="3.1"/>
<circle cx="265.7" cy="243.5" r="3.1"/>
<circle cx="173.5" cy="177.6" r="3.1"/>
<circle cx="286.9" cy="163.8" r="3.1"/>
<circle cx="212" cy="251.2" r="3.1"/>
<circle cx="208.1" cy="135.3" r="3.2"/>
<circle cx="289.9" cy="218.7" r="3.2"/>
<circle cx="172.4" cy="212.4" r="3.2"/>
<circle cx="264" cy="137.2" r="3.2"/>
<circle cx="247.1" cy="255.3" r="3.2"/>
<circle cx="179.3" cy="156.2" r="3.2"/>
<circle cx="297.1" cy="183.6" r="3.2"/>
<circle cx="190.9" cy="243.4" r="3.2"/>
<circle cx="229.1" cy="126.8" r="3.2"/>
<circle cx="280" cy="239.3" r="3.2"/>
<circle cx="165.8" cy="190.4" r="3.3"/>
<circle cx="283.8" cy="149" r="3.3"/>
<circle cx="224.4" cy="260" r="3.3"/>
<circle cx="193" cy="137.3" r="3.3"/>
<circle cx="299.7" cy="207" r="3.3"/>
<circle cx="173.1" cy="227.8" r="3.3"/>
<circle cx="252.9" cy="126.4" r="3.3"/>
<circle cx="262.6" cy="255.8" r="3.3"/>
<circle cx="167.5" cy="166.4" r="3.3"/>
<circle cx="298.8" cy="168.1" r="3.3"/>
<circle cx="200.3" cy="256" r="3.3"/>
<circle cx="213.6" cy="123.9" r="3.4"/>
<circle cx="293.5" cy="230.9" r="3.4"/>
<circle cx="161.5" cy="205.8" r="3.4"/>
<circle cx="276.4" cy="134.8" r="3.4"/>
<circle cx="239.5" cy="265.5" r="3.4"/>
<circle cx="178.1" cy="143.5" r="3.4"/>
<circle cx="306.5" cy="192.3" r="3.4"/>
<circle cx="178.2" cy="243.3" r="3.4"/>
<circle cx="238.6" cy="118.4" r="3.4"/>
<circle cx="278.6" cy="252" r="3.4"/>
<circle cx="158.3" cy="180.1" r="3.4"/>
<circle cx="296.3" cy="151.7" r="3.4"/>
<circle cx="213.3" cy="266.4" r="3.5"/>
<circle cx="196.9" cy="125.1" r="3.5"/>
<circle cx="305" cy="218.7" r="3.5"/>
<circle cx="161.4" cy="222.7" r="3.5"/>
<circle cx="265.1" cy="122.2" r="3.5"/>
<circle cx="256.5" cy="267" r="3.5"/>
<circle cx="164.5" cy="153.9" r="3.5"/>
<circle cx="309.4" cy="175.3" r="3.5"/>
<circle cx="187.5" cy="257.8" r="3.5"/>
<circle cx="221.9" cy="114" r="3.5"/>
<circle cx="294" cy="243.8" r="3.5"/>
<circle cx="152.5" cy="196.6" r="3.5"/>
<circle cx="289.3" cy="135.5" r="3.6"/>
<circle cx="229.4" cy="273.6" r="3.6"/>
<circle cx="180.1" cy="130.7" r="3.6"/>
<circle cx="313.6" cy="203.1" r="3.6"/>
<circle cx="165.6" cy="240" r="3.6"/>
<circle cx="250.1" cy="112.3" r="3.6"/>
</g>
<g transform="rotate(10.6 148.6 232.6)"><ellipse cx="148.6" cy="232.6" rx="6.4" ry="15.3" fill="#7a3b1e"/><path d="M148.6 217.3L121.2 200.4M148.6 217.3L128.4 192.3M148.6 217.3L137.9 186.9M148.6 217.3L148.6 185.1M148.6 217.3L159.3 186.9M148.6 217.3L168.8 192.3M148.6 217.3L176 200.4" stroke="#7a3b1e" stroke-width="1.8" opacity=".72" fill="none"/></g>
<g transform="rotate(104.9 118.1 150.9)"><ellipse cx="118.1" cy="150.9" rx="6.6" ry="15.8" fill="#7a3b1e"/><path d="M118.1 135.1L89.8 117.7M118.1 135.1L97.2 109.3M118.1 135.1L107 103.8M118.1 135.1L118.1 101.9M118.1 135.1L129.1 103.8M118.1 135.1L138.9 109.3M118.1 135.1L146.3 117.7" stroke="#7a3b1e" stroke-width="1.8" opacity=".72" fill="none"/></g>
<g transform="rotate(39.8 334.8 227.8)"><ellipse cx="334.8" cy="227.8" rx="5.2" ry="12.3" fill="#7a3b1e"/><path d="M334.8 215.5L312.8 202M334.8 215.5L318.5 195.5M334.8 215.5L326.2 191.2M334.8 215.5L334.8 189.7M334.8 215.5L343.4 191.2M334.8 215.5L351 195.5M334.8 215.5L356.8 202" stroke="#7a3b1e" stroke-width="1.8" opacity=".72" fill="none"/></g>
<g transform="rotate(97.3 146.2 165.8)"><ellipse cx="146.2" cy="165.8" rx="6.1" ry="14.5" fill="#7a3b1e"/><path d="M146.2 151.3L120.3 135.3M146.2 151.3L127.1 127.6M146.2 151.3L136.1 122.6M146.2 151.3L146.2 120.8M146.2 151.3L156.4 122.6M146.2 151.3L165.4 127.6M146.2 151.3L172.2 135.3" stroke="#7a3b1e" stroke-width="1.8" opacity=".72" fill="none"/></g>
</g>
<g id="b-rim" fill="none">
<circle cx="256" cy="256" r="216" stroke="#7a3b1e" stroke-width="7" opacity=".9"/>
<circle cx="256" cy="256" r="205" stroke="#d6bf99" stroke-width="3" opacity=".55"/>
</g>
<g id="b-text">
<g id="b-plaque" transform="rotate(1.5 256 418)">
<rect x="150" y="386" width="212" height="64" rx="3" fill="#f1e5c8" stroke="#b89376" stroke-width="1.6" opacity=".95"/>
<rect x="155" y="391" width="202" height="54" rx="2" fill="none" stroke="#b89376" stroke-width=".8" opacity=".6"/>
<text x="256" y="420" text-anchor="middle" font-family="serif" font-size="23" letter-spacing="1.5" fill="#7a3b1e">Warm Mako</text>
<text x="256" y="439" text-anchor="middle" font-family="sans-serif" font-size="11" letter-spacing="3" fill="#a5785b">ACHENES 31</text>
</g>
</g>
<title>Warm Mako</title>
</g><circle cx="89" cy="290" r="61.65" fill="none" stroke="#417895" stroke-width="1.6" opacity=".55"/><circle cx="89" cy="290" r="66.67" fill="none" stroke="#cdbf9c" stroke-width=".9" opacity=".85"/></g><text x="158" y="238" font-family="sans-serif" font-size="10.5" letter-spacing="1.8" fill="#7d735c">UNRECORDED MOLD</text><text x="158" y="261" font-family="serif" font-size="25" letter-spacing="0.2" fill="#2c2a20">Rival</text><text x="158" y="273.5" font-family="serif" font-size="11" font-style="italic" fill="#7d735c">first run</text><path d="M158 281L224.64 281" stroke="#417895" stroke-width="1.6" opacity="0.7" fill="none"/><path d="M158 290L354 290" stroke="#8d7f5e" stroke-width="1.1" opacity="0.7" fill="none"/><text x="182.5" y="309.32" font-family="serif" font-size="21" text-anchor="middle" fill="#2c2a20">5</text><text x="182.5" y="321.92" font-family="sans-serif" font-size="9.31" text-anchor="middle" letter-spacing="1.5" fill="#7d735c">SPEED</text><path d="M207 293L207 312.05" stroke="#cdbf9c" stroke-width="0.8" fill="none"/><text x="231.5" y="309.32" font-family="serif" font-size="21" text-anchor="middle" fill="#2c2a20">4</text><text x="231.5" y="321.92" font-family="sans-serif" font-size="9.31" text-anchor="middle" letter-spacing="1.5" fill="#7d735c">GLIDE</text><path d="M256 293L256 312.05" stroke="#cdbf9c" stroke-width="0.8" fill="none"/><text x="280.5" y="309.32" font-family="serif" font-size="21" text-anchor="middle" fill="#2c2a20">-1</text><text x="280.5" y="321.92" font-family="sans-serif" font-size="9.31" text-anchor="middle" letter-spacing="1.5" fill="#7d735c">TURN</text><path d="M305 293L305 312.05" stroke="#cdbf9c" stroke-width="0.8" fill="none"/><text x="329.5" y="309.32" font-family="serif" font-size="21" text-anchor="middle" fill="#2c2a20">1</text><text x="329.5" y="321.92" font-family="sans-serif" font-size="9.31" text-anchor="middle" letter-spacing="1.5" fill="#7d735c">FADE</text><path d="M158 332.42L354 332.42" stroke="#417895" stroke-width="1.4" opacity="0.55" fill="none"/><circle cx="412" cy="290.24" r="32" fill="#8d7f5e" opacity=".18"/><circle cx="412" cy="288" r="32" fill="#f6efdd" stroke="#417895" stroke-width="2"/><circle cx="412" cy="288" r="26.24" fill="none" stroke="#cdbf9c" stroke-width=".9"/><text x="412" y="297.6" font-family="serif" font-size="33.6" text-anchor="middle" fill="#2c2a20">–</text><text x="412" y="334.72" font-family="sans-serif" font-size="9" text-anchor="middle" letter-spacing="1.8" fill="#7d735c">SCORE</text><text x="235" y="397" font-family="sans-serif" font-size="8" text-anchor="middle" letter-spacing="1.6" opacity="0.85" fill="#7d735c">PLATE · BATTLE · STACKED</text><title>Warm Mako vs Rival — botanical match plate (stacked)</title></svg>
