<?xml version="1.0" encoding="UTF-8"?>
<svg xmlns="http://www.w3.org/2000/svg" width="96" height="96" viewBox="0 0 512 512" role="img" aria-label="DiscBattle">
<defs><clipPath id="disc"><circle cx="256" cy="256" r="220"/></clipPath>
<linearGradient id="depth" x1="0" y1="0" x2="0" y2="1"><stop offset="0" stop-color="#ffffff" stop-opacity=".16"/><stop offset="1" stop-color="#000000" stop-opacity=".30"/></linearGradient>
</defs>
<g id="base" clip-path="url(#disc)">
<circle cx="256" cy="256" r="220" fill="#4c9bc6"/>
<circle cx="256" cy="256" r="220" fill="url(#depth)"/>
</g>
<g id="art" clip-path="url(#disc)">
<g id="screen" fill="#0d3558">
<circle cx="212.2" cy="41.8" r="12.7"/>
<circle cx="259.4" cy="54.5" r="16.4"/>
<circle cx="306.6" cy="67.1" r="20.4"/>
<circle cx="353.8" cy="79.8" r="24.7"/>
<circle cx="401.1" cy="92.4" r="29.2"/>
<circle cx="448.3" cy="105.1" r="34.0"/>
<circle cx="128.7" cy="70.0" r="7.7"/>
<circle cx="175.9" cy="82.7" r="10.7"/>
<circle cx="223.1" cy="95.4" r="14.1"/>
<circle cx="270.3" cy="108.0" r="17.9"/>
<circle cx="317.6" cy="120.7" r="22.0"/>
<circle cx="364.8" cy="133.3" r="26.4"/>
<circle cx="412.0" cy="146.0" r="31.1"/>
<circle cx="459.2" cy="158.6" r="36.0"/>
<circle cx="92.4" cy="110.9" r="6.3"/>
<circle cx="139.6" cy="123.6" r="8.8"/>
<circle cx="186.9" cy="136.2" r="12.0"/>
<circle cx="234.1" cy="148.9" r="15.6"/>
<circle cx="281.3" cy="161.6" r="19.5"/>
<circle cx="328.5" cy="174.2" r="23.7"/>
<circle cx="375.8" cy="186.9" r="28.3"/>
<circle cx="423.0" cy="199.5" r="33.0"/>
<circle cx="470.2" cy="212.2" r="38.0"/>
<circle cx="103.4" cy="164.5" r="7.2"/>
<circle cx="150.6" cy="177.1" r="10.0"/>
<circle cx="197.8" cy="189.8" r="13.3"/>
<circle cx="245.0" cy="202.5" r="17.1"/>
<circle cx="292.3" cy="215.1" r="21.1"/>
<circle cx="339.5" cy="227.8" r="25.5"/>
<circle cx="386.7" cy="240.4" r="30.1"/>
<circle cx="433.9" cy="253.1" r="35.0"/>
<circle cx="481.2" cy="265.7" r="39.6"/>
<circle cx="67.1" cy="205.4" r="5.9"/>
<circle cx="114.3" cy="218.0" r="8.2"/>
<circle cx="161.6" cy="230.7" r="11.3"/>
<circle cx="208.8" cy="243.3" r="14.8"/>
<circle cx="256.0" cy="256.0" r="18.6"/>
<circle cx="303.2" cy="268.7" r="22.8"/>
<circle cx="350.4" cy="281.3" r="27.3"/>
<circle cx="397.7" cy="294.0" r="32.0"/>
<circle cx="444.9" cy="306.6" r="36.9"/>
<circle cx="492.1" cy="319.3" r="39.6"/>
<circle cx="78.1" cy="258.9" r="6.7"/>
<circle cx="125.3" cy="271.6" r="9.4"/>
<circle cx="172.5" cy="284.2" r="12.6"/>
<circle cx="219.7" cy="296.9" r="16.3"/>
<circle cx="267.0" cy="309.5" r="20.3"/>
<circle cx="314.2" cy="322.2" r="24.6"/>
<circle cx="361.4" cy="334.9" r="29.1"/>
<circle cx="408.6" cy="347.5" r="33.9"/>
<circle cx="455.9" cy="360.2" r="38.9"/>
<circle cx="41.8" cy="299.8" r="5.5"/>
<circle cx="89.0" cy="312.5" r="7.7"/>
<circle cx="136.2" cy="325.1" r="10.6"/>
<circle cx="183.5" cy="337.8" r="14.0"/>
<circle cx="230.7" cy="350.4" r="17.8"/>
<circle cx="277.9" cy="363.1" r="21.9"/>
<circle cx="325.1" cy="375.8" r="26.3"/>
<circle cx="372.4" cy="388.4" r="31.0"/>
<circle cx="419.6" cy="401.1" r="35.9"/>
<circle cx="52.8" cy="353.4" r="6.2"/>
<circle cx="100.0" cy="366.0" r="8.8"/>
<circle cx="147.2" cy="378.7" r="11.9"/>
<circle cx="194.4" cy="391.3" r="15.5"/>
<circle cx="241.7" cy="404.0" r="19.4"/>
<circle cx="288.9" cy="416.6" r="23.6"/>
<circle cx="336.1" cy="429.3" r="28.1"/>
<circle cx="383.3" cy="442.0" r="32.9"/>
<circle cx="110.9" cy="419.6" r="9.9"/>
<circle cx="158.2" cy="432.2" r="13.3"/>
<circle cx="205.4" cy="444.9" r="17.0"/>
<circle cx="252.6" cy="457.5" r="21.0"/>
<circle cx="299.8" cy="470.2" r="25.4"/>
<circle cx="347.1" cy="482.9" r="30.0"/>
</g>
</g>
<g id="rim" fill="none">
<circle cx="256" cy="256" r="216" stroke="#0d3558" stroke-width="7.0" opacity=".92"/>
<circle cx="256" cy="256" r="203" stroke="#ffffff" stroke-width="5.3" opacity=".30"/>
</g>
<g id="stamp" clip-path="url(#disc)">
<g stroke="#4c9bc6" stroke-width="16.0" stroke-linecap="butt">
<line x1="405.3" y1="241.5" x2="477.0" y2="234.6"/>
<line x1="270.5" y1="405.3" x2="277.4" y2="477.0"/>
<line x1="106.7" y1="270.5" x2="35.0" y2="277.4"/>
<line x1="241.5" y1="106.7" x2="234.6" y2="35.0"/>
</g>
<g stroke="#0d3558" stroke-width="4.3" stroke-linecap="butt" opacity=".95">
<line x1="411.3" y1="241.0" x2="477.0" y2="234.6"/>
<line x1="271.0" y1="411.3" x2="277.4" y2="477.0"/>
<line x1="100.7" y1="271.0" x2="35.0" y2="277.4"/>
<line x1="241.0" y1="100.7" x2="234.6" y2="35.0"/>
</g>
</g>
<title>DiscBattle</title>
</svg>
