<?xml version="1.0" encoding="UTF-8"?>
<svg xmlns="http://www.w3.org/2000/svg" width="700" height="550" viewBox="0 0 440 346" role="img" aria-label="Warm Mako vs Rival — battle card plate (stacked)"><title>Warm Mako vs Rival — battle card plate (stacked)</title><rect x="0" y="0" width="440" height="346" rx="10" fill="#f5f0e4"/><rect x="7" y="7" width="426" height="332" fill="#efe7d5"/><g stroke="#cfc4a8" stroke-width="0.7" opacity=".85"><path d="M35 7 V339"/><path d="M63 7 V339"/><path d="M91 7 V339"/><path d="M119 7 V339"/><path d="M147 7 V339"/><path d="M175 7 V339"/><path d="M203 7 V339"/><path d="M231 7 V339"/><path d="M259 7 V339"/><path d="M287 7 V339"/><path d="M315 7 V339"/><path d="M343 7 V339"/><path d="M371 7 V339"/><path d="M399 7 V339"/><path d="M427 7 V339"/><path d="M7 35 H433"/><path d="M7 63 H433"/><path d="M7 91 H433"/><path d="M7 119 H433"/><path d="M7 147 H433"/><path d="M7 175 H433"/><path d="M7 203 H433"/><path d="M7 231 H433"/><path d="M7 259 H433"/><path d="M7 287 H433"/><path d="M7 315 H433"/></g><rect x="7" y="7" width="426" height="332" fill="none" stroke="#2b3a33" stroke-width="1.6"/><rect x="12" y="12" width="416" height="322" fill="none" stroke="#2b3a33" stroke-width="0.7" opacity=".55"/><path d="M5 12 h14 M12 5 v14" stroke="#4c9bc6" stroke-width="1.4" opacity=".85"/><path d="M421 12 h14 M428 5 v14" stroke="#4c9bc6" stroke-width="1.4" opacity=".85"/><path d="M5 334 h14 M12 327 v14" stroke="#4c9bc6" stroke-width="1.4" opacity=".85"/><path d="M421 334 h14 M428 327 v14" stroke="#4c9bc6" stroke-width="1.4" opacity=".85"/><rect x="0" y="0" width="440" height="346" rx="10" fill="none" stroke="#2b3a33" stroke-width="1.2"/><text x="24" y="34" font-family="sans-serif" font-size="8.6" letter-spacing="1.8" fill="#8a9388">MATCH PLATE · STACKED</text><path d="M24 40 H416" stroke="#2b3a33" stroke-width="1" opacity=".55"/><circle cx="74" cy="114" r="46.97" fill="#f5f0e4" stroke="#4c9bc6" stroke-width="1.2" opacity=".9"/><defs><clipPath id="a0-box"><rect x="24" y="64" width="100" height="100"/></clipPath></defs><g clip-path="url(#a0-box)"><g transform="translate(24 64) scale(0.2) translate(0 0)">
<defs><clipPath id="a0-fp-disc"><circle cx="256" cy="256" r="220"/></clipPath>
<linearGradient id="a0-fp-depth" x1="0" y1="0" x2="0" y2="1"><stop offset="0" stop-color="#fff" stop-opacity=".18"/><stop offset="1" stop-color="#000" stop-opacity=".28"/></linearGradient></defs>
<g id="a0-base" clip-path="url(#a0-fp-disc)">
<circle cx="256" cy="256" r="220" fill="#e8d8b0"/>
</g>
<g id="a0-art" clip-path="url(#a0-fp-disc)">
<g transform="rotate(-29.3 256 256)">
<rect x="-40" y="-40" width="592" height="592" fill="#8b765c"/>
<circle cx="68.1" cy="341.4" r="8.3" fill="#4e4234" opacity=".8"/>
<circle cx="99.6" cy="330.6" r="9.2" fill="#4e4234" opacity=".8"/>
<circle cx="80.8" cy="304.6" r="10.1" fill="#4e4234" opacity=".8"/>
<circle cx="95.2" cy="289.8" r="10.9" fill="#4e4234" opacity=".8"/>
<circle cx="117.4" cy="279.6" r="11.7" fill="#4e4234" opacity=".8"/>
<circle cx="100.1" cy="250.6" r="12.4" fill="#4e4234" opacity=".8"/>
<circle cx="129.4" cy="245.9" r="12.9" fill="#4e4234" opacity=".8"/>
<circle cx="138.4" cy="230.7" r="13.4" fill="#4e4234" opacity=".8"/>
<circle cx="132.5" cy="204.5" r="13.7" fill="#4e4234" opacity=".8"/>
<circle cx="167.3" cy="209.1" r="13.9" fill="#4e4234" opacity=".8"/>
<circle cx="166.1" cy="185" r="14" fill="#4e4234" opacity=".8"/>
<circle cx="175.8" cy="169.5" r="13.9" fill="#4e4234" opacity=".8"/>
<circle cx="206.5" cy="177.1" r="13.7" fill="#4e4234" opacity=".8"/>
<circle cx="203" cy="145.8" r="13.4" fill="#4e4234" opacity=".8"/>
<circle cx="225.6" cy="146.4" r="12.9" fill="#4e4234" opacity=".8"/>
<circle cx="247.1" cy="148.1" r="12.3" fill="#4e4234" opacity=".8"/>
<circle cx="249.1" cy="116.8" r="11.7" fill="#4e4234" opacity=".8"/>
<circle cx="277.3" cy="132.7" r="10.9" fill="#4e4234" opacity=".8"/>
<circle cx="291.1" cy="121.6" r="10.1" fill="#4e4234" opacity=".8"/>
<circle cx="301.8" cy="100.5" r="9.2" fill="#4e4234" opacity=".8"/>
<circle cx="328.9" cy="123.6" r="8.3" fill="#4e4234" opacity=".8"/>
<circle cx="340.1" cy="99.5" r="8.6" fill="#4e4234" opacity=".8"/>
<circle cx="230.6" cy="383.8" r="13.6" fill="#4e4234" opacity=".8"/>
<circle cx="209.6" cy="364.2" r="13.9" fill="#4e4234" opacity=".8"/>
<circle cx="219.2" cy="353.6" r="14" fill="#4e4234" opacity=".8"/>
<circle cx="239.2" cy="348.3" r="14" fill="#4e4234" opacity=".8"/>
<circle cx="216.9" cy="325.6" r="13.8" fill="#4e4234" opacity=".8"/>
<circle cx="240.9" cy="324.2" r="13.5" fill="#4e4234" opacity=".8"/>
<circle cx="245.9" cy="314.5" r="13.1" fill="#4e4234" opacity=".8"/>
<circle cx="232.4" cy="292.8" r="12.5" fill="#4e4234" opacity=".8"/>
<circle cx="261.6" cy="299.9" r="11.9" fill="#4e4234" opacity=".8"/>
<circle cx="254.1" cy="280.8" r="11.1" fill="#4e4234" opacity=".8"/>
<circle cx="255.2" cy="267.1" r="10.3" fill="#4e4234" opacity=".8"/>
<circle cx="280" cy="276.5" r="9.5" fill="#4e4234" opacity=".8"/>
<circle cx="268.3" cy="248.1" r="8.6" fill="#4e4234" opacity=".8"/>
<circle cx="282.9" cy="248" r="8.3" fill="#4e4234" opacity=".8"/>
<circle cx="298.4" cy="250.7" r="9.2" fill="#4e4234" opacity=".8"/>
<circle cx="291.6" cy="219.4" r="10.1" fill="#4e4234" opacity=".8"/>
<circle cx="313.5" cy="232.9" r="10.9" fill="#4e4234" opacity=".8"/>
<circle cx="321.1" cy="221.9" r="11.7" fill="#4e4234" opacity=".8"/>
<circle cx="324.2" cy="198" r="12.4" fill="#4e4234" opacity=".8"/>
<circle cx="346.6" cy="218.5" r="12.9" fill="#4e4234" opacity=".8"/>
<circle cx="351.8" cy="193.3" r="13.4" fill="#4e4234" opacity=".8"/>
<circle cx="364.4" cy="185.4" r="13.7" fill="#4e4234" opacity=".8"/>
<circle cx="270.6" cy="48.8" r="11.6" fill="#4e4234" opacity=".55"/>
<circle cx="301.7" cy="42.8" r="9.6" fill="#4e4234" opacity=".55"/>
<circle cx="163.9" cy="92.2" r="12" fill="#4e4234" opacity=".55"/>
<circle cx="201.2" cy="106.3" r="7.2" fill="#4e4234" opacity=".55"/>
<circle cx="240.2" cy="78" r="11.9" fill="#4e4234" opacity=".55"/>
<circle cx="409.4" cy="82.7" r="9.7" fill="#4e4234" opacity=".55"/>
<circle cx="101" cy="164" r="9.2" fill="#4e4234" opacity=".55"/>
<circle cx="132.8" cy="136.5" r="11.7" fill="#4e4234" opacity=".55"/>
<circle cx="198.9" cy="148.7" r="8" fill="#4e4234" opacity=".55"/>
<circle cx="423.1" cy="145.8" r="8.6" fill="#4e4234" opacity=".55"/>
<circle cx="83.8" cy="192.2" r="10.2" fill="#4e4234" opacity=".55"/>
<circle cx="416.7" cy="215.9" r="7.4" fill="#4e4234" opacity=".55"/>
<circle cx="456.4" cy="197.4" r="11.9" fill="#4e4234" opacity=".55"/>
<circle cx="47.8" cy="269.7" r="9.4" fill="#4e4234" opacity=".55"/>
<circle cx="316.5" cy="261.6" r="9" fill="#4e4234" opacity=".55"/>
<circle cx="348.7" cy="262.3" r="11.8" fill="#4e4234" opacity=".55"/>
<circle cx="415.4" cy="241.3" r="7.8" fill="#4e4234" opacity=".55"/>
<circle cx="35.8" cy="295.1" r="8.3" fill="#4e4234" opacity=".55"/>
<circle cx="300.2" cy="294.7" r="10.1" fill="#4e4234" opacity=".55"/>
<circle cx="377.8" cy="317.9" r="11.3" fill="#4e4234" opacity=".55"/>
<circle cx="424.3" cy="313.9" r="9" fill="#4e4234" opacity=".55"/>
<circle cx="456.6" cy="296.4" r="11.8" fill="#4e4234" opacity=".55"/>
<circle cx="264.2" cy="361" r="9.6" fill="#4e4234" opacity=".55"/>
<circle cx="322.6" cy="377" r="10.9" fill="#4e4234" opacity=".55"/>
<circle cx="352.5" cy="348.2" r="10.6" fill="#4e4234" opacity=".55"/>
<circle cx="408.4" cy="373.9" r="10" fill="#4e4234" opacity=".55"/>
<circle cx="217.8" cy="434" r="11.9" fill="#4e4234" opacity=".55"/>
<circle cx="251.3" cy="407.3" r="8.5" fill="#4e4234" opacity=".55"/>
<circle cx="295.4" cy="417.5" r="11.6" fill="#4e4234" opacity=".55"/>
<circle cx="372.5" cy="429.4" r="9.6" fill="#4e4234" opacity=".55"/>
<circle cx="430.4" cy="402" r="10.9" fill="#4e4234" opacity=".55"/>
<circle cx="186" cy="461.3" r="12" fill="#4e4234" opacity=".55"/>
<circle cx="256.9" cy="488" r="7.3" fill="#4e4234" opacity=".55"/>
<circle cx="325.7" cy="459.6" r="11.9" fill="#4e4234" opacity=".55"/>
<ellipse cx="366" cy="146" rx="45.2" ry="39.8" fill="#f7f2e4" opacity=".95" stroke="#f7f1e2" stroke-width="3"/>
<path d="M191.1 377.3L193.4 368.2L195.8 359.4L198.4 350.8L201.2 342.4L204.1 334.2L207.1 326.3L210.3 318.5L213.6 311L217.1 303.6L220.6 296.4L224.4 289.4L228.3 282.6L232.3 275.8L236.5 269.3L240.9 262.8L245.5 256.5L250.3 250.3L255.2 244.2L260.4 238.2L265.9 232.4L271.5 226.6L277.5 221L283.6 215.5L290.1 210.1L296.8 204.9L303.9 199.8L311.2 194.9L318.8 190.1L326.7 185.5L334.9 181.1L343.5 176.9L352.3 172.8L361.4 169L370.9 165.4L361.1 126.6L350.1 128.4L339.2 130.4L328.5 132.7L317.9 135.3L307.5 138.1L297.2 141.2L287.1 144.6L277.1 148.2L267.3 152.2L257.7 156.5L248.3 161.1L239 166L229.9 171.3L221 176.9L212.4 182.9L204 189.1L195.8 195.8L187.8 202.7L180.1 210L172.7 217.7L165.6 225.6L158.8 233.9L152.2 242.5L146 251.4L140.1 260.5L134.5 270L129.2 279.7L124.2 289.7L119.5 300L115.2 310.5L111.2 321.2L107.5 332.2L104.1 343.3L100.9 354.7Z" fill="#f0e5cb"/>
<path d="M121.2 359.8L128.8 333.8L138 309.1L148.8 285.8L161.2 264L175.3 243.7L190.9 225L208 208L226.6 192.7L246.4 179.1L267.5 167.2L289.8 157L313.2 148.3L337.7 141.1L363.3 135.3" fill="none" stroke="#ffffff" stroke-width="9" opacity=".08"/>
<path d="M137.9 364L145.1 339L153.6 315.4L163.7 293.1L175.1 272.2L188.1 252.7L202.4 234.7L218.1 218.1L235.2 203L253.6 189.3L273.4 177.1L294.4 166.4L316.7 157L340.3 149.1L365.1 142.5" fill="none" stroke="#ffffff" stroke-width="9" opacity=".08"/>
<path d="M154.1 368L160.9 344.1L168.9 321.5L178.2 300.2L188.7 280.2L200.5 261.5L213.6 244.1L227.9 227.9L243.6 213L260.6 199.2L279.1 186.7L298.9 175.5L320.1 165.5L342.8 156.8L366.9 149.5" fill="none" stroke="#ffffff" stroke-width="9" opacity=".08"/>
<path d="M170.8 372.2L177.1 349.3L184.6 327.7L193.1 307.5L202.7 288.5L213.3 270.6L225.1 253.8L238 238L252.2 223.2L267.8 209.4L284.9 196.6L303.5 184.9L323.6 174.3L345.3 164.8L368.7 156.7" fill="none" stroke="#ffffff" stroke-width="9" opacity=".08"/>
<path d="M191.1 377.3L193.4 368.2L195.8 359.4L198.4 350.8L201.2 342.4L204.1 334.2L207.1 326.3L210.3 318.5L213.6 311L217.1 303.6L220.6 296.4L224.4 289.4L228.3 282.6L232.3 275.8L236.5 269.3L240.9 262.8L245.5 256.5L250.3 250.3L255.2 244.2L260.4 238.2L265.9 232.4L271.5 226.6L277.5 221L283.6 215.5L290.1 210.1L296.8 204.9L303.9 199.8L311.2 194.9L318.8 190.1L326.7 185.5L334.9 181.1L343.5 176.9L352.3 172.8L361.4 169L370.9 165.4L361.1 126.6L350.1 128.4L339.2 130.4L328.5 132.7L317.9 135.3L307.5 138.1L297.2 141.2L287.1 144.6L277.1 148.2L267.3 152.2L257.7 156.5L248.3 161.1L239 166L229.9 171.3L221 176.9L212.4 182.9L204 189.1L195.8 195.8L187.8 202.7L180.1 210L172.7 217.7L165.6 225.6L158.8 233.9L152.2 242.5L146 251.4L140.1 260.5L134.5 270L129.2 279.7L124.2 289.7L119.5 300L115.2 310.5L111.2 321.2L107.5 332.2L104.1 343.3L100.9 354.7Z" fill="none" stroke="#f7f1e2" stroke-width="3.4" opacity=".7"/>
<path d="M27.9 -5.7L54.7 28L75.9 67.2L97.2 106.2L124.6 139.3L159.7 164.9L199 186.6L236 210.3L266 241L288.8 278.6L309.3 318.4L333.8 354.4L366 382.8L404.4 405.3L443 427.5" fill="none" stroke="#82563a" stroke-width="22" opacity=".9"/>
<path d="M27.9 -5.7L54.7 28L75.9 67.2L97.2 106.2L124.6 139.3L159.7 164.9L199 186.6L236 210.3L266 241L288.8 278.6L309.3 318.4L333.8 354.4L366 382.8L404.4 405.3L443 427.5" fill="none" stroke="#f7f1e2" stroke-width="2.4" opacity=".55"/>
<path d="M146 366L153 341.5L161.3 318.4L170.9 296.6L181.9 276.2L194.3 257.1L208 239.4L223 223L239.4 208L257.1 194.3L276.2 181.9L296.6 170.9L318.4 161.3L341.5 153L366 146" fill="none" stroke="#7a3b1e" stroke-width="4.6" opacity=".85" stroke-dasharray="18 13" stroke-linecap="round"/>
<g transform="translate(146 366) rotate(-76)"><rect x="-31" y="-31" width="61.9" height="62" rx="7" fill="#7a3b1e"/><rect x="-31" y="-31" width="61.9" height="62" rx="7" fill="none" stroke="#f7f1e2" stroke-width="3" opacity=".8"/></g>
</g>
<circle cx="256" cy="256" r="220" fill="url(#a0-fp-depth)"/>
</g>
<g id="a0-rim" fill="none">
<circle cx="256" cy="256" r="216" stroke="#7a3b1e" stroke-width="7" opacity=".9"/>
<circle cx="256" cy="256" r="201" stroke="#fff" stroke-width="3" opacity=".28"/>
</g>
<g id="a0-stamp">
<circle cx="298" cy="106.2" r="31" fill="none" stroke="#7a3b1e" stroke-width="10"/>
<circle cx="298" cy="106.2" r="12" fill="#7a3b1e"/>
<path d="M298 75.2 v-24" stroke="#7a3b1e" stroke-width="7" stroke-linecap="round"/>
</g>
<g id="a0-text">
<text x="96" y="154" font-family="serif" font-size="62" font-weight="700" fill="#fefdfa" stroke="#905a3b" stroke-width="9.9" stroke-linejoin="round" paint-order="stroke">1</text>
<text x="98" y="180" font-family="sans-serif" font-size="18" letter-spacing="2.2" fill="#fefdfa" stroke="#905a3b" stroke-width="3.3" stroke-linejoin="round" paint-order="stroke">PAR 4</text>
<rect x="167.2" y="398" width="177.6" height="34" rx="5" fill="#fcfaf6" stroke="#7a3b1e" stroke-width="2.6" opacity=".96"/>
<text x="256" y="421" text-anchor="middle" font-family="sans-serif" font-size="20" letter-spacing="2.4" fill="#432010">Warm Mako</text>
</g>
<title>Warm Mako</title>
</g></g><g transform="rotate(0 74 114)"><path d="M74 61.03 v6" stroke="#2b3a33" stroke-width="1.3"/></g><g transform="rotate(90 74 114)"><path d="M74 61.03 v6" stroke="#2b3a33" stroke-width="1.3"/></g><g transform="rotate(180 74 114)"><path d="M74 61.03 v6" stroke="#2b3a33" stroke-width="1.3"/></g><g transform="rotate(270 74 114)"><path d="M74 61.03 v6" stroke="#2b3a33" stroke-width="1.3"/></g><text x="150" y="78" font-family="sans-serif" font-size="10.5" letter-spacing="1.4" fill="#6f7c71">INNOVA · MAKO3</text><path d="M150 83 h67.32" stroke="#4c9bc6" stroke-width="2"/><text x="150" y="108" font-family="serif" font-size="24" font-weight="700" fill="#22302b">Warm Mako</text><path d="M150 124 h198" stroke="#2b3a33" stroke-width="1" opacity=".6"/><path d="M174.75 124 v5" stroke="#4c9bc6" stroke-width="2"/><text x="174.75" y="143" font-family="serif" font-size="17" font-weight="700" text-anchor="middle" fill="#22302b">5</text><text x="174.75" y="156" font-family="sans-serif" font-size="7.6" text-anchor="middle" letter-spacing="1.1" fill="#6f7c71">SPEED</text><path d="M199.5 127 v33" stroke="#cfc4a8" stroke-width="1"/><path d="M224.25 124 v5" stroke="#4c9bc6" stroke-width="2"/><text x="224.25" y="143" font-family="serif" font-size="17" font-weight="700" text-anchor="middle" fill="#22302b">4</text><text x="224.25" y="156" font-family="sans-serif" font-size="7.6" text-anchor="middle" letter-spacing="1.1" fill="#6f7c71">GLIDE</text><path d="M249 127 v33" stroke="#cfc4a8" stroke-width="1"/><path d="M273.75 124 v5" stroke="#4c9bc6" stroke-width="2"/><text x="273.75" y="143" font-family="serif" font-size="17" font-weight="700" text-anchor="middle" fill="#22302b">-1</text><text x="273.75" y="156" font-family="sans-serif" font-size="7.6" text-anchor="middle" letter-spacing="1.1" fill="#6f7c71">TURN</text><path d="M298.5 127 v33" stroke="#cfc4a8" stroke-width="1"/><path d="M323.25 124 v5" stroke="#4c9bc6" stroke-width="2"/><text x="323.25" y="143" font-family="serif" font-size="17" font-weight="700" text-anchor="middle" fill="#22302b">1</text><text x="323.25" y="156" font-family="sans-serif" font-size="7.6" text-anchor="middle" letter-spacing="1.1" fill="#6f7c71">FADE</text><rect x="358" y="68" width="56" height="58" rx="6" fill="#dae2df" stroke="#4c9bc6" stroke-width="1.6"/><text x="386" y="105.12" font-family="serif" font-size="32.48" font-weight="700" text-anchor="middle" fill="#22302b">7</text><text x="386" y="121" font-family="sans-serif" font-size="7" text-anchor="middle" letter-spacing="1.1" fill="#6f7c71">SCORE</text><circle cx="414" cy="68" r="8" fill="#4c9bc6"/><text x="414" y="71.6" font-family="sans-serif" font-size="10" text-anchor="middle" fill="#f5f0e4">★</text><path d="M24 188 H416" stroke="#cfc4a8" stroke-width="1" stroke-dasharray="5 4"/><circle cx="220" cy="188" r="12" fill="#f5f0e4" stroke="#2b3a33" stroke-width="1.2"/><text x="220" y="192" font-family="sans-serif" font-size="9" font-weight="700" text-anchor="middle" letter-spacing="0.8" fill="#22302b">VS</text><circle cx="74" cy="254" r="46.97" fill="#f5f0e4" stroke="#4c9bc6" stroke-width="1.2" opacity=".9"/><defs><clipPath id="a1-box"><rect x="24" y="204" width="100" height="100"/></clipPath></defs><g clip-path="url(#a1-box)"><g transform="translate(24 204) scale(0.2) translate(0 0)">
<defs><clipPath id="a1-fp-disc"><circle cx="256" cy="256" r="220"/></clipPath>
<linearGradient id="a1-fp-depth" x1="0" y1="0" x2="0" y2="1"><stop offset="0" stop-color="#fff" stop-opacity=".18"/><stop offset="1" stop-color="#000" stop-opacity=".28"/></linearGradient></defs>
<g id="a1-base" clip-path="url(#a1-fp-disc)">
<circle cx="256" cy="256" r="220" fill="#e8d8b0"/>
</g>
<g id="a1-art" clip-path="url(#a1-fp-disc)">
<g transform="rotate(-19.7 256 256)">
<rect x="-40" y="-40" width="592" height="592" fill="#8b765c"/>
<circle cx="142.3" cy="310.4" r="14" fill="#4e4234" opacity=".8"/>
<circle cx="156.6" cy="306.2" r="13.9" fill="#4e4234" opacity=".8"/>
<circle cx="165.4" cy="283.4" r="13.7" fill="#4e4234" opacity=".8"/>
<circle cx="185.6" cy="308.2" r="13.4" fill="#4e4234" opacity=".8"/>
<circle cx="192" cy="287.1" r="12.9" fill="#4e4234" opacity=".8"/>
<circle cx="201" cy="278.9" r="12.4" fill="#4e4234" opacity=".8"/>
<circle cx="222" cy="296.8" r="11.7" fill="#4e4234" opacity=".8"/>
<circle cx="218.4" cy="267.4" r="10.9" fill="#4e4234" opacity=".8"/>
<circle cx="234.2" cy="273.4" r="10.1" fill="#4e4234" opacity=".8"/>
<circle cx="249.8" cy="276.7" r="9.2" fill="#4e4234" opacity=".8"/>
<circle cx="240.3" cy="249.9" r="8.3" fill="#4e4234" opacity=".8"/>
<circle cx="266" cy="262.2" r="8.6" fill="#4e4234" opacity=".8"/>
<circle cx="269" cy="250.5" r="9.5" fill="#4e4234" opacity=".8"/>
<circle cx="263" cy="233" r="10.3" fill="#4e4234" opacity=".8"/>
<circle cx="294" cy="241.1" r="11.1" fill="#4e4234" opacity=".8"/>
<circle cx="282.1" cy="220.8" r="11.9" fill="#4e4234" opacity=".8"/>
<circle cx="288.5" cy="211.5" r="12.5" fill="#4e4234" opacity=".8"/>
<circle cx="314.6" cy="209.1" r="13.1" fill="#4e4234" opacity=".8"/>
<circle cx="293.1" cy="187.6" r="13.5" fill="#4e4234" opacity=".8"/>
<circle cx="314.5" cy="180.3" r="13.8" fill="#4e4234" opacity=".8"/>
<circle cx="325.5" cy="168.1" r="14" fill="#4e4234" opacity=".8"/>
<circle cx="304.6" cy="149" r="14" fill="#4e4234" opacity=".8"/>
<circle cx="160.4" cy="434.1" r="10.3" fill="#4e4234" opacity=".8"/>
<circle cx="176.6" cy="409.4" r="9.5" fill="#4e4234" opacity=".8"/>
<circle cx="202.1" cy="433.4" r="8.6" fill="#4e4234" opacity=".8"/>
<circle cx="216.8" cy="411.6" r="8.3" fill="#4e4234" opacity=".8"/>
<circle cx="232.7" cy="399.3" r="9.2" fill="#4e4234" opacity=".8"/>
<circle cx="259.8" cy="415.6" r="10.1" fill="#4e4234" opacity=".8"/>
<circle cx="265.1" cy="382.2" r="10.9" fill="#4e4234" opacity=".8"/>
<circle cx="286.2" cy="382.8" r="11.7" fill="#4e4234" opacity=".8"/>
<circle cx="308.6" cy="382.7" r="12.4" fill="#4e4234" opacity=".8"/>
<circle cx="306.3" cy="348.7" r="12.9" fill="#4e4234" opacity=".8"/>
<circle cx="335.4" cy="355.4" r="13.4" fill="#4e4234" opacity=".8"/>
<circle cx="344.6" cy="338.1" r="13.7" fill="#4e4234" opacity=".8"/>
<circle cx="342.2" cy="312.1" r="13.9" fill="#4e4234" opacity=".8"/>
<circle cx="375.4" cy="315.1" r="14" fill="#4e4234" opacity=".8"/>
<circle cx="367.5" cy="287.6" r="13.9" fill="#4e4234" opacity=".8"/>
<circle cx="374" cy="270.9" r="13.7" fill="#4e4234" opacity=".8"/>
<circle cx="401.4" cy="264.1" r="13.4" fill="#4e4234" opacity=".8"/>
<circle cx="380.9" cy="235.3" r="12.9" fill="#4e4234" opacity=".8"/>
<circle cx="400.4" cy="223.2" r="12.4" fill="#4e4234" opacity=".8"/>
<circle cx="412.2" cy="206.9" r="11.7" fill="#4e4234" opacity=".8"/>
<circle cx="389.8" cy="182.1" r="10.9" fill="#4e4234" opacity=".8"/>
<circle cx="418.6" cy="168.3" r="10.1" fill="#4e4234" opacity=".8"/>
<circle cx="218" cy="39.3" r="12" fill="#4e4234" opacity=".55"/>
<circle cx="254.4" cy="51.5" r="7.5" fill="#4e4234" opacity=".55"/>
<circle cx="107.8" cy="83.2" r="11.3" fill="#4e4234" opacity=".55"/>
<circle cx="154.2" cy="110" r="8.9" fill="#4e4234" opacity=".55"/>
<circle cx="186.6" cy="81.7" r="11.8" fill="#4e4234" opacity=".55"/>
<circle cx="253.7" cy="95.8" r="7.7" fill="#4e4234" opacity=".55"/>
<circle cx="326" cy="103.6" r="12" fill="#4e4234" opacity=".55"/>
<circle cx="362.1" cy="78.2" r="7.6" fill="#4e4234" opacity=".55"/>
<circle cx="52.5" cy="160.9" r="10.9" fill="#4e4234" opacity=".55"/>
<circle cx="82.5" cy="145.2" r="10.6" fill="#4e4234" opacity=".55"/>
<circle cx="138.4" cy="139.2" r="10" fill="#4e4234" opacity=".55"/>
<circle cx="215.9" cy="163.6" r="11.4" fill="#4e4234" opacity=".55"/>
<circle cx="262" cy="134.2" r="8.9" fill="#4e4234" opacity=".55"/>
<circle cx="294.5" cy="152.3" r="11.8" fill="#4e4234" opacity=".55"/>
<circle cx="434" cy="132.8" r="12" fill="#4e4234" opacity=".55"/>
<circle cx="102.5" cy="216.2" r="9.6" fill="#4e4234" opacity=".55"/>
<circle cx="160.4" cy="196.8" r="10.9" fill="#4e4234" opacity=".55"/>
<circle cx="190.3" cy="195.4" r="10.6" fill="#4e4234" opacity=".55"/>
<circle cx="246.6" cy="216.8" r="9.9" fill="#4e4234" opacity=".55"/>
<circle cx="470.3" cy="187.8" r="7.5" fill="#4e4234" opacity=".55"/>
<circle cx="55.7" cy="261.7" r="11.9" fill="#4e4234" opacity=".55"/>
<circle cx="89" cy="241.5" r="8.6" fill="#4e4234" opacity=".55"/>
<circle cx="133.6" cy="271.2" r="11.5" fill="#4e4234" opacity=".55"/>
<circle cx="210.7" cy="248.5" r="9.7" fill="#4e4234" opacity=".55"/>
<circle cx="432.2" cy="264.9" r="11.4" fill="#4e4234" opacity=".55"/>
<circle cx="477.5" cy="258.8" r="8.7" fill="#4e4234" opacity=".55"/>
<circle cx="95.2" cy="313.3" r="7.4" fill="#4e4234" opacity=".55"/>
<circle cx="376" cy="322.3" r="10.8" fill="#4e4234" opacity=".55"/>
<circle cx="406" cy="294" r="10.8" fill="#4e4234" opacity=".55"/>
<circle cx="463.1" cy="320.8" r="9.8" fill="#4e4234" opacity=".55"/>
<circle cx="55.3" cy="348.1" r="11.8" fill="#4e4234" opacity=".55"/>
<circle cx="349.8" cy="364.7" r="11.4" fill="#4e4234" opacity=".55"/>
<circle cx="427.1" cy="374.5" r="9.9" fill="#4e4234" opacity=".55"/>
<circle cx="311.7" cy="433.8" r="7.5" fill="#4e4234" opacity=".55"/>
<circle cx="379.5" cy="404.9" r="11.9" fill="#4e4234" opacity=".55"/>
<circle cx="412.3" cy="421.2" r="8.8" fill="#4e4234" opacity=".55"/>
<circle cx="271.5" cy="467.9" r="11.8" fill="#4e4234" opacity=".55"/>
<circle cx="312.1" cy="464.3" r="7.7" fill="#4e4234" opacity=".55"/>
<ellipse cx="366" cy="146" rx="50.6" ry="44.5" fill="#f7f2e4" opacity=".95" stroke="#f7f1e2" stroke-width="3"/>
<path d="M151.2 404.7L163.6 402.8L175.7 400.6L187.6 398L199.2 395.1L210.5 391.7L221.6 388L232.4 383.9L242.8 379.5L253 374.6L262.9 369.3L272.4 363.6L281.6 357.6L290.4 351.2L298.8 344.4L306.9 337.2L314.6 329.7L321.8 321.8L328.7 313.7L335.1 305.2L341.2 296.4L346.8 287.3L352 278L356.8 268.4L361.2 258.6L365.2 248.6L368.8 238.3L372 227.8L374.9 217.1L377.4 206.2L379.6 195.1L381.5 183.8L383 172.3L384.2 160.5L385.1 148.6L346.9 143.4L344.4 154L341.7 164.2L338.7 174L335.4 183.5L331.9 192.6L328.2 201.3L324.2 209.6L320 217.6L315.6 225.2L311 232.4L306.3 239.3L301.3 245.9L296.2 252.1L290.9 258L285.4 263.6L279.8 269L274 274L268.1 278.8L261.9 283.4L255.6 287.7L249.1 291.8L242.3 295.7L235.4 299.4L228.2 302.9L220.7 306.2L213 309.4L205.1 312.3L196.8 315.1L188.3 317.6L179.4 320L170.2 322.2L160.7 324.1L150.9 325.8L140.8 327.3Z" fill="#f0e5cb"/>
<path d="M143.1 344.7L168.4 340.4L191.9 334.7L213.7 327.5L233.7 318.9L252.2 309L269.2 297.6L284.8 284.8L299 270.3L312 254.1L323.6 236.1L333.9 216.2L342.6 194.3L349.9 170.4L355.5 144.6" fill="none" stroke="#ffffff" stroke-width="9" opacity=".08"/>
<path d="M145.1 359L171.4 354.5L196 348.4L218.9 340.7L240 331.3L259.5 320.4L277.4 307.8L293.6 293.6L308.3 277.7L321.4 260.1L332.9 240.8L342.8 219.7L351 196.8L357.6 172L362.6 145.5" fill="none" stroke="#ffffff" stroke-width="9" opacity=".08"/>
<path d="M146.9 373L174.3 368.3L199.9 361.8L223.9 353.5L246.1 343.4L266.6 331.5L285.3 317.7L302.2 302.2L317.3 285L330.5 266L341.9 245.4L351.4 223.1L359.2 199.2L365.2 173.6L369.4 146.5" fill="none" stroke="#ffffff" stroke-width="9" opacity=".08"/>
<path d="M148.9 387.3L177.2 382.4L204 375.5L229.1 366.7L252.4 355.8L273.9 342.9L293.5 327.9L311.1 311.1L326.5 292.4L339.9 272L351.1 250.1L360.3 226.6L367.6 201.6L372.9 175.3L376.5 147.4" fill="none" stroke="#ffffff" stroke-width="9" opacity=".08"/>
<path d="M151.2 404.7L163.6 402.8L175.7 400.6L187.6 398L199.2 395.1L210.5 391.7L221.6 388L232.4 383.9L242.8 379.5L253 374.6L262.9 369.3L272.4 363.6L281.6 357.6L290.4 351.2L298.8 344.4L306.9 337.2L314.6 329.7L321.8 321.8L328.7 313.7L335.1 305.2L341.2 296.4L346.8 287.3L352 278L356.8 268.4L361.2 258.6L365.2 248.6L368.8 238.3L372 227.8L374.9 217.1L377.4 206.2L379.6 195.1L381.5 183.8L383 172.3L384.2 160.5L385.1 148.6L346.9 143.4L344.4 154L341.7 164.2L338.7 174L335.4 183.5L331.9 192.6L328.2 201.3L324.2 209.6L320 217.6L315.6 225.2L311 232.4L306.3 239.3L301.3 245.9L296.2 252.1L290.9 258L285.4 263.6L279.8 269L274 274L268.1 278.8L261.9 283.4L255.6 287.7L249.1 291.8L242.3 295.7L235.4 299.4L228.2 302.9L220.7 306.2L213 309.4L205.1 312.3L196.8 315.1L188.3 317.6L179.4 320L170.2 322.2L160.7 324.1L150.9 325.8L140.8 327.3Z" fill="none" stroke="#f7f1e2" stroke-width="3.4" opacity=".7"/>
<path d="M101.1 73.1L116.2 115.3L135 154.8L162.1 188.1L196.6 215.8L232.4 242.5L262.8 273.3L284.3 310.7L300 352.5L316.5 393.7L340.1 429.5L372.2 459L408.4 485.5L441.6 514.2L466.6 549" fill="none" stroke="#82563a" stroke-width="22" opacity=".9"/>
<path d="M101.1 73.1L116.2 115.3L135 154.8L162.1 188.1L196.6 215.8L232.4 242.5L262.8 273.3L284.3 310.7L300 352.5L316.5 393.7L340.1 429.5L372.2 459L408.4 485.5L441.6 514.2L466.6 549" fill="none" stroke="#f7f1e2" stroke-width="2.4" opacity=".55"/>
<path d="M146 366L172.8 361.4L198 355.1L221.4 347.1L243.1 337.4L263.1 325.9L281.4 312.8L297.9 297.9L312.8 281.4L325.9 263.1L337.4 243.1L347.1 221.4L355.1 198L361.4 172.8L366 146" fill="none" stroke="#7a3b1e" stroke-width="4.6" opacity=".85" stroke-dasharray="18 13" stroke-linecap="round"/>
<g transform="translate(146 366) rotate(-7.7)"><rect x="-22.6" y="-31" width="45.3" height="62" rx="7" fill="#7a3b1e"/><rect x="-22.6" y="-31" width="45.3" height="62" rx="7" fill="none" stroke="#f7f1e2" stroke-width="3" opacity=".8"/></g>
</g>
<circle cx="256" cy="256" r="220" fill="url(#a1-fp-depth)"/>
</g>
<g id="a1-rim" fill="none">
<circle cx="256" cy="256" r="216" stroke="#7a3b1e" stroke-width="7" opacity=".9"/>
<circle cx="256" cy="256" r="201" stroke="#fff" stroke-width="3" opacity=".28"/>
</g>
<g id="a1-stamp">
<circle cx="322.4" cy="115.3" r="31" fill="none" stroke="#7a3b1e" stroke-width="10"/>
<circle cx="322.4" cy="115.3" r="12" fill="#7a3b1e"/>
<path d="M322.4 84.3 v-24" stroke="#7a3b1e" stroke-width="7" stroke-linecap="round"/>
</g>
<g id="a1-text">
<text x="96" y="154" font-family="serif" font-size="62" font-weight="700" fill="#fefdfa" stroke="#905a3b" stroke-width="9.9" stroke-linejoin="round" paint-order="stroke">2</text>
<text x="98" y="180" font-family="sans-serif" font-size="18" letter-spacing="2.2" fill="#fefdfa" stroke="#905a3b" stroke-width="3.3" stroke-linejoin="round" paint-order="stroke">PAR 3</text>
<rect x="200" y="398" width="112" height="34" rx="5" fill="#fcfaf6" stroke="#7a3b1e" stroke-width="2.6" opacity=".96"/>
<text x="256" y="421" text-anchor="middle" font-family="sans-serif" font-size="20" letter-spacing="2.4" fill="#432010">Rival</text>
</g>
<title>Rival</title>
</g></g><g transform="rotate(0 74 254)"><path d="M74 201.03 v6" stroke="#2b3a33" stroke-width="1.3"/></g><g transform="rotate(90 74 254)"><path d="M74 201.03 v6" stroke="#2b3a33" stroke-width="1.3"/></g><g transform="rotate(180 74 254)"><path d="M74 201.03 v6" stroke="#2b3a33" stroke-width="1.3"/></g><g transform="rotate(270 74 254)"><path d="M74 201.03 v6" stroke="#2b3a33" stroke-width="1.3"/></g><text x="150" y="218" font-family="sans-serif" font-size="10.5" letter-spacing="1.4" fill="#6f7c71">DISCRAFT · BUZZZ</text><path d="M150 223 h67.32" stroke="#4c9bc6" stroke-width="2"/><text x="150" y="248" font-family="serif" font-size="24" font-weight="700" fill="#22302b">Rival</text><path d="M150 264 h198" stroke="#2b3a33" stroke-width="1" opacity=".6"/><path d="M174.75 264 v5" stroke="#4c9bc6" stroke-width="2"/><text x="174.75" y="283" font-family="serif" font-size="17" font-weight="700" text-anchor="middle" fill="#22302b">5</text><text x="174.75" y="296" font-family="sans-serif" font-size="7.6" text-anchor="middle" letter-spacing="1.1" fill="#6f7c71">SPEED</text><path d="M199.5 267 v33" stroke="#cfc4a8" stroke-width="1"/><path d="M224.25 264 v5" stroke="#4c9bc6" stroke-width="2"/><text x="224.25" y="283" font-family="serif" font-size="17" font-weight="700" text-anchor="middle" fill="#22302b">4</text><text x="224.25" y="296" font-family="sans-serif" font-size="7.6" text-anchor="middle" letter-spacing="1.1" fill="#6f7c71">GLIDE</text><path d="M249 267 v33" stroke="#cfc4a8" stroke-width="1"/><path d="M273.75 264 v5" stroke="#4c9bc6" stroke-width="2"/><text x="273.75" y="283" font-family="serif" font-size="17" font-weight="700" text-anchor="middle" fill="#22302b">-1</text><text x="273.75" y="296" font-family="sans-serif" font-size="7.6" text-anchor="middle" letter-spacing="1.1" fill="#6f7c71">TURN</text><path d="M298.5 267 v33" stroke="#cfc4a8" stroke-width="1"/><path d="M323.25 264 v5" stroke="#4c9bc6" stroke-width="2"/><text x="323.25" y="283" font-family="serif" font-size="17" font-weight="700" text-anchor="middle" fill="#22302b">1</text><text x="323.25" y="296" font-family="sans-serif" font-size="7.6" text-anchor="middle" letter-spacing="1.1" fill="#6f7c71">FADE</text><rect x="358" y="208" width="56" height="58" rx="6" fill="#dae2df" stroke="#4c9bc6" stroke-width="1.6"/><text x="386" y="245.12" font-family="serif" font-size="32.48" font-weight="700" text-anchor="middle" fill="#22302b">4</text><text x="386" y="261" font-family="sans-serif" font-size="7" text-anchor="middle" letter-spacing="1.1" fill="#6f7c71">SCORE</text></svg>
