<?xml version="1.0" encoding="UTF-8"?>
<svg xmlns="http://www.w3.org/2000/svg" width="42" height="42" viewBox="0 0 512 512" role="img" aria-label="DiscBattle">
<defs><clipPath id="disc"><circle cx="256" cy="256" r="220"/></clipPath>
<radialGradient id="depth" cx=".38" cy=".32" r=".78"><stop offset="0" stop-color="#fff" stop-opacity=".16"/><stop offset=".72" stop-color="#fff" stop-opacity="0"/><stop offset="1" stop-color="#000" stop-opacity=".20"/></radialGradient></defs>
<g id="base" clip-path="url(#disc)">
<circle cx="256" cy="256" r="220" fill="#1e1e24"/>
<circle cx="256" cy="256" r="220" fill="#3a3329" opacity=".93"/>
<circle cx="256" cy="256" r="220" fill="url(#depth)"/>
</g>
<g id="art" clip-path="url(#disc)">
<g id="repeat" transform="rotate(4.5 256 256)">
<g fill="#f2c14e" stroke="#f2c14e">
<g transform="translate(132.9 117) rotate(179.1)">
<path d="M0 -52.1Q25.3 0 0 52.1Q-25.3 0 0 -52.1Z" stroke="none"/>
</g>
<g transform="translate(265.8 117) rotate(-8.6)">
<path d="M0 0L0 -25.3" stroke-width="5.2" fill="none"/>
<circle cx="0" cy="-25.3" r="18.6" stroke="none"/>
<path d="M0 0L-22.3 14.9" stroke-width="5.2" fill="none"/>
<circle cx="-22.3" cy="14.9" r="18.6" stroke="none"/>
<path d="M0 0L22.3 16.4" stroke-width="5.2" fill="none"/>
<circle cx="22.3" cy="16.4" r="18.6" stroke="none"/>
</g>
<g transform="translate(398.7 117) rotate(183.8)">
<path d="M0 -52.1Q25.3 0 0 52.1Q-25.3 0 0 -52.1Z" stroke="none"/>
</g>
<g transform="translate(66.5 233.9) rotate(183.7)">
<path d="M0 -52.1Q25.3 0 0 52.1Q-25.3 0 0 -52.1Z" stroke="none"/>
</g>
<g transform="translate(199.4 233.9) rotate(8.5)">
<path d="M0 0L0 -25.3" stroke-width="5.2" fill="none"/>
<circle cx="0" cy="-25.3" r="18.6" stroke="none"/>
<path d="M0 0L-22.3 14.9" stroke-width="5.2" fill="none"/>
<circle cx="-22.3" cy="14.9" r="18.6" stroke="none"/>
<path d="M0 0L22.3 16.4" stroke-width="5.2" fill="none"/>
<circle cx="22.3" cy="16.4" r="18.6" stroke="none"/>
</g>
<g transform="translate(332.3 233.9) rotate(186.1)">
<path d="M0 -52.1Q25.3 0 0 52.1Q-25.3 0 0 -52.1Z" stroke="none"/>
</g>
<g transform="translate(465.2 233.9) rotate(-5.3)">
<path d="M0 0L0 -25.3" stroke-width="5.2" fill="none"/>
<circle cx="0" cy="-25.3" r="18.6" stroke="none"/>
<path d="M0 0L-22.3 14.9" stroke-width="5.2" fill="none"/>
<circle cx="-22.3" cy="14.9" r="18.6" stroke="none"/>
<path d="M0 0L22.3 16.4" stroke-width="5.2" fill="none"/>
<circle cx="22.3" cy="16.4" r="18.6" stroke="none"/>
</g>
<g transform="translate(132.9 350.9) rotate(171.9)">
<path d="M0 -52.1Q25.3 0 0 52.1Q-25.3 0 0 -52.1Z" stroke="none"/>
</g>
<g transform="translate(265.8 350.9) rotate(-1)">
<path d="M0 0L0 -25.3" stroke-width="5.2" fill="none"/>
<circle cx="0" cy="-25.3" r="18.6" stroke="none"/>
<path d="M0 0L-22.3 14.9" stroke-width="5.2" fill="none"/>
<circle cx="-22.3" cy="14.9" r="18.6" stroke="none"/>
<path d="M0 0L22.3 16.4" stroke-width="5.2" fill="none"/>
<circle cx="22.3" cy="16.4" r="18.6" stroke="none"/>
</g>
<g transform="translate(398.7 350.9) rotate(174.3)">
<path d="M0 -52.1Q25.3 0 0 52.1Q-25.3 0 0 -52.1Z" stroke="none"/>
</g>
<g transform="translate(199.4 467.8) rotate(-4.4)">
<path d="M0 0L0 -25.3" stroke-width="5.2" fill="none"/>
<circle cx="0" cy="-25.3" r="18.6" stroke="none"/>
<path d="M0 0L-22.3 14.9" stroke-width="5.2" fill="none"/>
<circle cx="-22.3" cy="14.9" r="18.6" stroke="none"/>
<path d="M0 0L22.3 16.4" stroke-width="5.2" fill="none"/>
<circle cx="22.3" cy="16.4" r="18.6" stroke="none"/>
</g>
<g transform="translate(332.3 467.8) rotate(175.3)">
<path d="M0 -52.1Q25.3 0 0 52.1Q-25.3 0 0 -52.1Z" stroke="none"/>
</g>
</g>
</g>
</g>
<g id="rim" fill="none">
<circle cx="256" cy="256" r="216" stroke="#f2c14e" stroke-width="12.2" opacity=".9"/>
<circle cx="256" cy="256" r="205" stroke="#51452e" stroke-width="12.2" opacity=".55"/>
</g>
<title>DiscBattle</title>
</svg>
